{"glyphs":{"0":{"ha":1083,"x_min":0,"x_max":0,"o":"m 542 1049 b 850 886 664 1049 773 985 b 972 507 926 788 972 654 b 850 128 972 360 926 226 b 542 -35 773 29 664 -35 b 234 128 419 -35 310 29 b 111 507 157 226 111 360 b 234 886 111 654 157 788 b 542 1049 310 985 419 1049 z m 542 965 b 300 835 449 965 364 917 b 194 507 235 752 194 636 b 300 179 194 378 235 261 b 542 49 364 96 449 49 b 784 179 634 49 720 96 b 889 507 848 261 889 378 b 784 835 889 636 848 752 b 542 965 720 917 634 965 z "},"1":{"ha":861,"x_min":0,"x_max":0,"o":"m 429 1049 b 472 1007 453 1049 472 1030 l 472 49 l 708 49 b 750 7 731 49 750 30 b 708 -35 750 -16 731 -35 l 153 -35 b 111 9 125 -35 110 -10 b 153 49 112 28 128 49 l 389 49 l 389 954 l 219 911 b 167 946 190 904 170 926 b 198 992 165 964 175 986 l 421 1047 b 429 1049 423 1048 426 1049 z "},"2":{"ha":917,"x_min":0,"x_max":0,"o":"m 486 1049 b 631 1020 541 1049 590 1038 b 729 947 671 1002 703 977 b 806 729 782 886 806 807 b 775 588 806 678 794 631 b 699 475 756 546 730 509 b 481 302 637 407 558 353 b 276 155 404 251 329 204 b 231 106 258 139 243 122 b 201 49 217 87 207 69 l 764 49 b 806 7 787 49 806 30 b 764 -35 806 -16 787 -35 l 153 -35 b 122 -22 141 -35 130 -30 b 111 7 115 -14 111 -4 b 164 156 111 64 132 113 b 220 217 181 178 200 198 b 435 372 282 273 360 322 b 638 531 511 422 585 473 b 700 623 664 560 685 590 b 722 729 714 655 722 690 b 666 893 722 791 704 850 b 594 945 648 915 624 933 b 486 965 565 958 529 965 b 310 915 410 965 350 946 b 266 860 291 900 276 881 b 250 785 256 838 250 814 b 208 743 250 762 231 743 b 167 785 185 743 167 762 b 191 897 167 825 175 863 b 259 981 207 929 230 958 b 486 1049 317 1026 396 1049 z "},"3":{"ha":921,"x_min":0,"x_max":0,"o":"m 496 1042 b 517 1042 503 1043 510 1042 b 614 1020 551 1040 584 1032 b 778 785 707 981 778 893 b 752 669 778 744 769 705 b 676 575 735 633 709 601 b 618 538 658 561 641 550 b 640 529 623 536 633 532 b 710 484 666 516 689 501 b 788 382 745 455 771 420 b 811 270 804 346 811 308 b 809 242 811 261 810 252 b 707 53 801 171 765 103 b 458 -35 646 -1 561 -35 b 429 -34 448 -35 438 -34 b 312 -8 386 -31 347 -22 b 223 41 279 5 249 22 b 205 55 217 46 211 50 b 111 229 147 106 111 170 b 153 271 111 252 130 271 b 194 229 176 271 194 252 b 260 118 194 205 215 158 b 340 70 282 100 308 83 b 434 49 368 59 399 52 b 458 49 442 49 450 49 b 652 115 542 49 607 75 b 726 253 696 153 721 203 b 727 271 727 259 727 265 b 711 351 728 299 722 326 b 656 420 699 376 681 399 b 602 454 641 433 623 444 b 403 493 553 478 488 493 b 368 528 387 493 368 506 l 368 542 b 403 576 368 558 381 576 b 560 603 466 576 518 587 b 624 640 585 613 606 626 b 677 705 648 659 665 681 b 694 785 689 729 694 756 b 581 943 694 855 648 915 b 513 959 560 952 537 957 b 384 927 476 961 426 950 b 289 826 341 904 305 869 b 250 799 283 810 268 799 b 208 840 227 799 208 817 b 211 855 208 845 210 851 b 344 1001 236 922 288 970 b 496 1042 393 1027 447 1041 z "},"4":{"ha":972,"x_min":0,"x_max":0,"o":"m 652 1049 b 694 1007 675 1049 694 1030 l 694 382 l 819 382 b 861 340 843 382 861 363 b 820 299 861 317 843 299 l 694 299 l 694 181 l 694 7 b 653 -35 694 -16 676 -35 b 611 7 630 -35 611 -16 l 611 299 l 153 299 b 111 340 130 299 111 317 b 119 365 111 349 114 359 l 619 1032 b 652 1049 627 1042 639 1048 z m 611 882 l 236 382 l 611 382 z "},"5":{"ha":964,"x_min":0,"x_max":0,"o":"m 208 1049 l 708 1049 b 750 1007 731 1049 750 1030 b 708 965 750 984 731 965 l 250 965 l 250 660 l 419 660 b 440 659 426 660 433 660 b 459 659 446 659 453 659 b 611 632 516 656 566 646 b 728 571 656 617 695 596 b 749 554 735 565 742 560 b 830 440 786 521 812 482 b 853 312 847 399 854 355 b 753 76 852 226 816 141 b 475 -35 687 10 592 -35 b 225 51 383 -35 293 -4 b 145 148 192 78 165 110 b 111 285 123 188 111 235 b 153 326 111 308 130 326 b 194 285 176 326 194 308 b 219 186 194 248 203 215 b 278 116 233 159 253 136 b 475 49 329 74 401 49 b 695 135 571 49 644 84 b 770 313 742 185 769 250 b 754 405 771 345 766 376 b 693 492 741 437 722 466 b 677 505 688 496 682 501 b 585 553 652 524 621 540 b 454 575 548 565 505 573 b 436 576 449 576 443 576 b 419 576 431 576 425 576 l 208 576 b 178 589 196 576 186 581 b 167 618 171 597 167 607 l 167 1007 b 208 1049 167 1030 185 1049 z "},"6":{"ha":972,"x_min":0,"x_max":0,"o":"m 708 1049 b 750 1007 731 1049 750 1030 b 708 965 750 984 731 965 b 684 965 700 965 692 965 b 444 924 584 963 506 949 b 297 815 380 899 333 863 b 289 804 294 811 292 808 b 281 792 286 800 284 796 b 272 777 278 787 275 782 b 264 761 269 772 266 767 b 213 597 240 715 225 664 b 486 715 281 669 378 715 b 861 340 693 715 861 547 b 486 -35 861 133 693 -35 b 111 340 279 -35 111 133 b 194 807 111 532 131 688 b 202 822 196 812 199 817 b 211 837 205 827 208 832 b 221 852 214 842 218 847 b 231 865 224 856 227 861 b 412 1001 276 926 336 971 b 684 1048 487 1031 577 1046 b 708 1049 692 1049 700 1049 z m 486 632 b 194 340 325 632 194 501 b 486 49 194 179 325 49 b 778 340 647 49 778 179 b 486 632 778 501 647 632 z "},"7":{"ha":917,"x_min":0,"x_max":0,"o":"m 153 1049 l 764 1049 b 794 1036 776 1049 787 1044 b 806 1007 801 1028 806 1018 b 606 528 806 850 702 692 b 417 7 509 361 417 187 b 375 -35 417 -16 398 -35 b 333 7 352 -35 333 -16 b 534 570 333 215 436 403 b 719 965 620 719 702 851 l 153 965 b 111 1007 130 965 111 984 b 153 1049 111 1030 130 1049 z "},"8":{"ha":972,"x_min":0,"x_max":0,"o":"m 486 1049 b 665 993 536 1049 605 1033 b 778 785 726 952 778 883 b 667 609 778 704 728 647 b 582 564 641 591 615 578 b 755 466 641 537 704 506 b 861 257 816 416 861 348 b 762 48 861 176 828 101 b 486 -35 697 -5 604 -35 b 210 48 368 -35 275 -5 b 111 257 144 101 111 176 b 217 477 111 354 156 426 b 371 566 263 515 314 541 b 304 605 348 578 325 591 b 194 785 244 646 194 704 b 295 992 194 881 236 950 b 486 1049 353 1034 424 1049 z m 486 965 b 344 924 437 965 383 952 b 278 785 305 897 278 856 b 351 674 278 740 301 708 b 476 609 384 651 427 631 b 622 679 527 630 585 655 b 694 785 672 710 694 741 b 619 924 694 853 663 895 b 486 965 576 953 519 965 z m 474 519 b 460 513 470 517 465 515 b 271 413 388 484 319 453 b 194 257 223 373 194 327 b 262 112 194 199 216 149 b 486 49 308 75 382 49 b 710 112 590 49 664 75 b 778 257 756 149 778 199 b 702 401 778 319 751 361 b 511 503 654 440 584 472 b 474 519 498 509 489 513 z "},"9":{"ha":972,"x_min":0,"x_max":0,"o":"m 264 -35 b 222 7 241 -35 222 -16 b 264 49 222 30 241 49 b 289 49 272 49 280 49 b 529 89 388 51 466 65 b 675 199 592 115 639 151 b 683 210 678 202 681 206 b 691 222 686 214 689 218 b 700 237 694 227 697 232 b 709 253 703 242 706 247 b 759 417 732 299 748 350 b 486 299 692 345 594 299 b 111 674 279 299 111 467 b 486 1049 111 881 279 1049 b 861 674 693 1049 861 881 b 778 207 861 482 842 326 b 770 192 776 202 773 197 b 761 177 767 187 764 182 b 751 162 758 172 755 167 b 742 149 748 157 745 153 b 560 13 696 88 636 43 b 288 -34 485 -17 395 -32 b 264 -35 280 -35 272 -35 z m 486 382 b 778 674 647 382 778 512 b 486 965 778 835 647 965 b 194 674 325 965 194 835 b 486 382 194 512 325 382 z "}," ":{"ha":694,"x_min":0,"x_max":0,"o":""},"!":{"ha":319,"x_min":0,"x_max":0,"o":"m 159 1042 b 201 1000 182 1042 201 1023 l 201 222 b 160 180 201 199 183 180 b 118 222 137 180 118 199 l 118 1000 b 159 1042 118 1023 136 1041 z m 160 63 b 208 14 187 63 208 41 b 160 -35 208 -13 187 -35 b 111 14 133 -35 111 -13 b 160 63 111 41 133 63 z "},"\"":{"ha":461,"x_min":0,"x_max":0,"o":"m 153 1049 b 194 1007 175 1049 194 1030 l 194 840 b 153 798 194 817 176 798 b 111 840 130 798 111 817 l 111 1007 b 153 1049 111 1030 129 1048 z m 308 1049 b 350 1007 331 1049 350 1030 l 350 840 b 308 798 350 817 331 798 b 267 840 285 798 267 817 l 267 1007 b 308 1049 267 1030 285 1048 z "},"#":{"ha":1083,"x_min":0,"x_max":0,"o":"m 428 1049 b 431 1049 432 1049 431 1049 b 472 1008 454 1049 472 1030 b 472 1000 472 1008 473 1005 l 434 771 l 738 771 l 743 802 l 778 1014 b 817 1049 781 1033 798 1048 b 820 1049 821 1049 820 1049 b 861 1008 843 1049 861 1030 b 861 1000 861 1008 861 1005 l 838 864 l 825 787 l 822 771 l 931 771 b 972 729 954 771 972 752 b 931 688 972 706 954 688 l 809 688 l 748 327 l 875 327 b 917 285 898 327 917 308 b 875 243 917 262 898 243 l 734 243 l 723 173 l 694 1 b 653 -35 691 -19 674 -35 b 611 6 630 -35 611 -16 b 612 14 611 6 611 9 l 650 243 l 346 243 l 341 218 l 305 1 b 264 -35 302 -19 285 -35 b 222 6 241 -35 222 -16 b 223 14 222 6 222 9 l 248 165 l 259 233 l 261 243 l 153 243 b 111 285 130 243 111 262 b 153 327 111 308 130 327 l 275 327 l 335 688 l 208 688 b 167 729 185 688 167 706 b 208 771 167 752 185 771 l 349 771 l 350 776 l 390 1014 b 428 1049 392 1033 409 1048 z m 420 688 l 359 327 l 664 327 l 724 688 z "},"$":{"ha":972,"x_min":0,"x_max":0,"o":"m 486 1167 b 528 1125 509 1167 528 1148 l 528 1046 b 620 1020 559 1041 591 1032 b 703 970 650 1007 678 990 b 806 785 762 923 806 858 b 764 743 806 762 787 743 b 722 785 741 743 722 762 b 651 905 722 823 697 868 b 587 943 632 920 610 933 b 528 961 568 952 549 957 l 528 550 b 746 472 600 532 682 513 b 861 257 813 430 861 361 b 727 34 861 156 801 81 b 528 -33 666 -4 597 -26 l 528 -97 b 486 -139 528 -120 509 -139 b 444 -97 463 -139 444 -120 l 444 -33 b 340 -9 410 -29 374 -21 b 231 50 301 5 264 25 b 151 140 200 75 172 105 b 111 285 126 182 111 231 b 153 326 111 308 130 326 b 194 285 176 326 194 308 b 220 187 194 249 204 216 b 283 116 235 161 256 137 b 369 69 308 96 337 80 b 444 51 393 60 418 54 l 444 485 b 280 555 389 501 329 521 b 167 785 213 601 167 675 b 269 970 167 858 211 923 b 444 1046 318 1009 378 1037 l 444 1125 b 486 1167 444 1148 463 1166 z m 444 961 b 321 905 400 953 356 933 b 250 785 276 868 250 823 b 327 623 250 699 280 656 b 444 572 359 601 397 586 z m 528 464 l 528 51 b 683 105 578 58 637 76 b 778 257 741 141 778 191 b 702 402 778 334 750 372 b 528 464 658 429 597 446 z "},"%":{"ha":1085,"x_min":0,"x_max":0,"o":"m 934 1037 b 974 992 959 1036 975 1014 b 965 970 973 985 970 976 l 186 -19 b 124 -23 168 -42 138 -37 b 120 32 111 -10 105 13 l 899 1021 b 934 1037 907 1032 920 1038 z m 321 982 b 529 774 436 982 529 888 b 321 565 529 659 436 565 b 113 774 206 565 113 659 b 321 982 113 888 206 982 z m 321 899 b 196 774 252 899 196 843 b 321 649 196 704 252 649 b 446 774 390 649 446 704 b 321 899 446 843 390 899 z m 765 426 b 974 218 880 426 974 333 b 765 10 974 103 880 10 b 557 218 650 10 557 103 b 765 426 557 333 650 426 z m 765 343 b 640 218 696 343 640 287 b 765 93 640 149 696 93 b 890 218 834 93 890 149 b 765 343 890 287 834 343 z "},"&":{"ha":1083,"x_min":0,"x_max":0,"o":"m 542 1049 b 714 997 596 1049 661 1038 b 806 785 769 955 806 885 b 690 600 806 697 754 638 b 498 524 633 567 566 546 b 578 429 521 496 550 460 b 777 218 641 357 709 287 b 833 451 815 284 833 367 b 875 493 833 475 852 493 b 917 451 898 493 917 474 b 871 219 917 372 903 292 b 838 158 862 198 851 178 b 960 37 879 117 925 71 b 972 7 967 29 972 18 b 959 -23 972 -5 967 -16 b 931 -35 952 -30 942 -35 b 901 -22 920 -35 908 -30 b 785 92 867 11 828 50 b 431 -35 707 15 590 -35 b 223 52 362 -35 285 -2 b 111 285 160 107 111 187 b 224 498 111 382 159 452 b 364 568 266 528 313 549 b 350 588 359 574 354 582 b 278 785 308 657 278 722 b 350 989 278 875 301 944 b 542 1049 400 1034 467 1049 z m 542 965 b 406 928 477 965 433 952 b 361 785 380 903 361 862 b 421 633 361 750 382 695 b 446 595 429 620 437 608 b 647 672 523 620 597 642 b 722 785 698 702 722 733 b 664 930 722 865 696 906 b 542 965 631 955 585 965 z m 414 497 b 272 430 362 479 309 457 b 194 285 223 395 194 354 b 277 115 194 216 229 157 b 431 49 326 72 388 49 b 726 151 572 49 664 89 b 516 374 657 221 583 297 b 414 497 479 415 447 454 z "},"'":{"ha":306,"x_min":0,"x_max":0,"o":"m 152 1049 b 194 1007 175 1049 194 1030 l 194 840 b 153 798 194 817 176 798 b 111 840 130 798 111 817 l 111 1007 b 152 1049 111 1030 129 1048 z "},"(":{"ha":472,"x_min":0,"x_max":0,"o":"m 319 1174 b 361 1132 342 1174 361 1155 b 352 1106 361 1123 357 1113 b 194 521 251 979 194 751 b 352 -64 194 291 251 62 b 361 -90 357 -71 361 -81 b 320 -132 361 -113 343 -132 b 287 -116 307 -132 294 -126 b 111 521 166 34 111 279 b 287 1158 111 763 166 1007 b 319 1174 294 1167 305 1173 z "},")":{"ha":472,"x_min":0,"x_max":0,"o":"m 154 1174 b 111 1132 131 1174 111 1155 b 120 1106 111 1123 115 1113 b 278 521 222 979 278 751 b 121 -64 278 291 222 62 b 111 -90 115 -71 111 -81 b 153 -132 111 -113 130 -132 b 186 -116 166 -132 178 -126 b 361 521 306 34 361 279 b 186 1158 361 763 306 1007 b 154 1174 178 1167 167 1173 z "},"*":{"ha":556,"x_min":0,"x_max":0,"o":"m 278 1049 b 320 1007 301 1049 320 1030 l 320 932 l 386 961 b 404 965 390 963 398 965 b 445 924 427 964 445 946 b 420 885 445 907 435 892 l 350 855 l 418 787 b 431 757 426 779 431 768 b 418 726 431 745 426 734 b 389 715 410 719 400 715 b 359 728 378 715 367 720 l 278 809 l 196 728 b 167 715 189 720 178 715 b 136 728 155 715 144 720 b 125 757 129 736 125 746 b 138 787 125 768 130 779 l 206 855 l 136 885 b 111 924 121 892 111 907 b 153 965 111 946 129 965 b 170 961 159 965 166 963 l 236 932 l 236 1007 b 278 1049 236 1030 254 1048 z "},"+":{"ha":847,"x_min":0,"x_max":0,"o":"m 382 786 b 417 821 382 802 394 821 l 431 821 b 465 786 447 821 465 808 l 465 550 l 701 550 b 736 515 717 550 736 538 l 736 501 b 701 467 736 485 724 467 l 465 467 l 465 231 b 431 196 465 215 453 196 l 417 196 b 382 231 401 196 382 208 l 382 467 l 146 467 b 111 501 130 467 111 479 l 111 515 b 146 550 111 531 124 550 l 382 550 z "},",":{"ha":306,"x_min":0,"x_max":0,"o":"m 152 54 b 194 13 175 54 194 36 l 194 -154 b 153 -196 194 -177 176 -196 b 111 -154 130 -196 111 -177 l 111 12 b 152 54 111 35 129 54 z "},"-":{"ha":750,"x_min":0,"x_max":0,"o":"m 153 542 l 597 542 b 639 500 620 542 639 523 b 597 458 639 477 620 458 l 153 458 b 111 500 130 458 111 477 b 153 542 111 523 130 542 z "},".":{"ha":319,"x_min":0,"x_max":0,"o":"m 160 63 b 208 14 187 63 208 41 b 160 -35 208 -13 187 -35 b 111 14 133 -35 111 -13 b 160 63 111 41 133 63 z "},"/":{"ha":694,"x_min":0,"x_max":0,"o":"m 541 1049 b 583 1007 564 1049 583 1031 b 580 992 583 1002 582 996 l 192 -8 b 153 -35 186 -24 170 -35 b 111 7 130 -35 111 -16 b 114 22 111 12 112 18 l 503 1022 b 541 1049 508 1037 523 1048 z "},":":{"ha":319,"x_min":0,"x_max":0,"o":"m 160 775 b 208 726 187 775 208 753 b 160 678 208 700 187 678 b 111 726 133 678 111 700 b 160 775 111 753 133 775 z m 160 344 b 208 296 187 344 208 323 b 160 247 208 269 187 247 b 111 296 133 247 111 269 b 160 344 111 323 133 344 z "},";":{"ha":319,"x_min":0,"x_max":0,"o":"m 160 775 b 208 726 187 775 208 753 b 160 678 208 700 187 678 b 111 726 133 678 111 700 b 160 775 111 753 133 775 z m 160 345 b 201 303 183 345 201 326 l 201 136 b 160 94 201 113 183 94 b 118 136 137 94 118 113 l 118 303 b 160 345 118 326 136 344 z "},"<":{"ha":639,"x_min":0,"x_max":0,"o":"m 486 898 b 528 856 508 898 528 880 b 515 827 528 845 523 834 l 212 523 l 515 219 b 528 189 523 212 528 201 b 515 159 528 178 523 167 b 486 148 507 152 497 148 b 456 160 475 148 464 153 l 123 493 b 111 523 116 501 111 512 b 123 552 111 534 116 545 l 456 885 b 486 898 463 893 474 898 z "},"=":{"ha":750,"x_min":0,"x_max":0,"o":"m 153 761 l 597 761 b 639 719 620 761 639 742 b 597 678 639 696 620 678 l 153 678 b 111 719 130 678 111 696 b 153 761 111 743 130 761 z m 153 317 l 597 317 b 639 275 620 317 639 298 b 597 233 639 252 620 233 l 153 233 b 111 275 130 233 111 252 b 153 317 111 298 130 317 z "},">":{"ha":639,"x_min":0,"x_max":0,"o":"m 153 898 b 111 856 131 898 111 880 b 124 827 111 845 116 834 l 427 523 l 124 219 b 111 189 116 212 111 201 b 124 159 111 178 116 167 b 153 148 132 152 142 148 b 183 160 164 148 175 153 l 516 493 b 528 523 523 501 528 512 b 516 552 528 534 523 545 l 183 885 b 153 898 176 893 165 898 z "},"?":{"ha":917,"x_min":0,"x_max":0,"o":"m 458 1049 b 620 1020 521 1049 574 1038 b 724 953 662 1004 696 981 b 806 757 781 896 806 823 b 789 635 806 710 800 670 b 750 556 779 604 766 578 b 633 458 715 509 671 482 b 540 381 595 433 563 412 b 511 322 528 365 518 346 b 500 229 504 297 500 267 b 458 187 500 206 481 187 b 417 229 435 187 417 206 b 432 346 417 274 422 312 b 472 430 441 379 455 407 b 589 528 507 477 551 504 b 683 605 627 553 660 574 b 711 663 694 621 704 639 b 722 757 718 688 722 718 b 665 894 722 802 705 854 b 588 943 646 914 621 931 b 458 965 554 957 511 965 b 327 943 405 965 362 957 b 252 894 295 930 271 913 b 194 757 212 854 194 802 b 153 715 194 734 176 715 b 111 757 130 715 111 734 b 193 953 111 823 136 896 b 298 1021 221 981 256 1004 b 443 1048 339 1037 388 1047 b 458 1049 448 1049 453 1049 z m 458 63 b 507 14 485 63 507 41 b 458 -35 507 -13 485 -35 b 410 14 431 -35 410 -13 b 458 63 410 41 431 63 z "},"@":{"ha":1500,"x_min":0,"x_max":0,"o":"m 903 1151 b 1121 1103 985 1151 1058 1136 b 1275 954 1183 1070 1235 1021 b 1389 360 1355 822 1389 627 b 1328 205 1389 294 1365 241 b 1194 151 1292 170 1243 151 b 1061 205 1146 151 1097 170 b 1003 322 1031 234 1010 273 b 986 294 998 314 991 303 b 653 151 913 190 798 151 b 448 262 562 151 489 196 b 422 497 406 328 396 414 b 1040 818 474 666 670 818 b 1083 776 1056 818 1084 807 l 1083 360 b 1119 264 1083 314 1098 283 b 1194 235 1139 244 1166 235 b 1271 265 1223 235 1251 245 b 1306 360 1291 284 1306 314 b 1204 911 1306 620 1270 801 b 1082 1031 1171 966 1131 1005 b 903 1068 1033 1056 974 1068 b 880 1068 895 1068 887 1068 b 541 987 755 1065 640 1036 b 194 471 331 884 194 693 b 195 445 194 462 195 454 b 196 422 195 437 195 429 b 197 397 196 413 196 405 b 199 373 198 389 198 381 b 202 350 200 365 201 358 b 323 47 218 221 260 120 b 334 34 327 43 331 38 b 479 -63 374 -8 423 -41 b 681 -99 537 -86 604 -99 b 1072 -24 792 -99 978 -94 b 1132 -34 1094 -7 1121 -17 b 1122 -90 1142 -49 1143 -75 b 681 -182 995 -186 790 -182 b 657 -182 673 -182 665 -182 b 435 -135 576 -179 501 -163 b 260 -8 367 -106 308 -63 b 119 340 184 80 137 198 b 116 365 118 348 117 357 b 114 391 115 374 115 382 b 112 418 113 400 113 409 b 111 445 112 427 112 436 b 111 471 111 454 111 462 b 505 1062 111 730 271 947 b 878 1151 615 1116 742 1148 b 903 1151 886 1151 894 1151 z m 1000 734 b 502 472 681 723 538 591 b 518 306 482 410 491 350 b 653 235 546 263 590 235 b 917 342 785 235 865 266 b 1000 734 968 415 996 535 z "},"A":{"ha":1083,"x_min":0,"x_max":0,"o":"m 542 1049 b 581 1022 559 1049 574 1038 l 969 22 b 972 7 971 18 972 11 b 931 -35 972 -16 954 -35 b 892 -8 913 -35 898 -24 l 772 299 l 311 299 l 192 -8 b 153 -35 186 -24 170 -35 b 111 7 130 -35 111 -16 b 114 22 111 11 112 18 l 503 1022 b 542 1049 509 1038 525 1049 z m 542 892 l 343 382 l 740 382 z "},"B":{"ha":910,"x_min":0,"x_max":0,"o":"m 153 1049 l 403 1049 b 757 757 629 1049 757 907 b 605 512 757 661 706 568 b 799 257 727 463 799 363 b 403 -35 799 102 653 -35 l 153 -35 b 122 -22 141 -35 130 -30 b 111 7 115 -14 111 -4 l 111 1007 b 153 1049 111 1030 130 1049 z m 194 965 l 194 549 l 403 549 b 674 757 593 549 674 657 b 403 965 674 857 593 965 z m 194 465 l 194 49 l 403 49 b 715 257 625 49 715 161 b 403 465 715 352 625 465 z "},"C":{"ha":1139,"x_min":0,"x_max":0,"o":"m 644 1048 b 1002 921 771 1050 898 1008 b 1017 889 1011 914 1017 901 b 1005 860 1017 878 1012 868 b 975 847 998 852 987 847 b 948 857 965 847 955 851 b 641 965 859 932 749 968 b 316 818 522 962 404 912 b 289 786 307 808 298 797 b 273 763 283 778 278 771 b 194 500 219 684 193 592 b 281 239 196 408 225 316 b 298 216 286 231 292 223 b 326 185 307 205 316 195 b 406 121 350 161 377 139 b 430 106 414 116 422 111 b 443 99 434 104 439 101 b 469 87 452 95 460 91 b 483 81 473 85 478 83 b 638 49 532 61 584 50 b 958 165 756 45 871 87 b 986 176 965 172 976 176 b 1028 134 1009 176 1028 157 b 1014 103 1028 122 1022 111 b 879 14 973 67 927 37 b 635 -35 803 -20 720 -37 b 451 4 571 -33 509 -19 b 435 11 446 6 440 8 b 419 18 430 13 424 15 b 404 25 414 20 409 23 b 389 33 399 28 394 31 b 374 42 384 36 379 39 b 360 51 369 45 364 48 b 266 127 326 73 295 98 b 233 164 255 139 244 151 b 213 190 226 173 220 181 b 204 204 210 194 207 199 b 111 499 144 293 113 395 b 195 796 110 602 137 706 b 204 810 198 801 201 806 b 223 836 210 819 216 828 b 255 875 233 850 244 862 b 644 1048 360 987 501 1046 z "},"D":{"ha":1061,"x_min":0,"x_max":0,"o":"m 153 1049 l 399 1049 b 812 879 579 1049 719 981 b 951 507 905 776 951 641 b 812 135 951 373 905 238 b 399 -35 719 33 579 -35 l 153 -35 b 122 -22 141 -35 130 -30 b 111 7 115 -14 111 -4 l 111 1007 b 153 1049 111 1030 130 1049 z m 194 965 l 194 49 l 399 49 b 751 191 558 49 673 106 b 867 507 828 276 867 391 b 751 823 867 623 828 738 b 399 965 673 908 558 965 z "},"E":{"ha":806,"x_min":0,"x_max":0,"o":"m 153 1049 l 653 1049 b 695 1007 676 1049 695 1030 b 653 965 695 984 676 965 l 194 965 l 194 549 l 597 549 b 639 507 620 549 639 530 b 597 465 639 484 620 465 l 194 465 l 194 49 l 653 49 b 695 7 676 49 695 30 b 653 -35 695 -16 676 -35 l 153 -35 b 122 -22 141 -35 130 -30 b 111 7 115 -14 111 -4 l 111 506 l 111 1007 b 153 1049 111 1030 130 1049 z "},"F":{"ha":806,"x_min":0,"x_max":0,"o":"m 153 1049 l 653 1049 b 695 1007 676 1049 695 1030 b 653 965 695 984 676 965 l 194 965 l 194 549 l 597 549 b 639 507 620 549 639 530 b 597 465 639 484 620 465 l 194 465 l 194 7 b 153 -35 194 -16 176 -35 b 111 7 130 -35 111 -16 l 111 506 l 111 1007 b 153 1049 111 1030 130 1049 z "},"G":{"ha":1306,"x_min":0,"x_max":0,"o":"m 655 1050 b 1002 923 779 1049 902 1006 b 1005 862 1023 905 1019 876 b 948 859 992 848 967 842 b 375 873 784 997 546 1003 b 363 863 371 870 367 866 b 234 694 306 817 263 759 b 237 316 182 577 180 439 b 749 60 326 121 540 15 b 1109 466 946 102 1090 266 l 681 466 b 639 510 653 466 638 491 b 681 550 640 529 656 550 l 1153 550 b 1195 508 1176 550 1194 531 l 1194 504 b 767 -23 1193 251 1015 31 b 161 280 519 -76 267 50 b 159 730 93 426 96 590 b 312 929 193 806 244 874 b 324 939 316 932 320 936 b 644 1050 419 1011 531 1048 b 655 1050 648 1050 652 1050 z "},"H":{"ha":917,"x_min":0,"x_max":0,"o":"m 153 1049 b 194 1007 175 1049 194 1030 l 194 549 l 722 549 l 722 1007 b 764 1049 722 1030 740 1048 b 806 1007 787 1049 806 1030 l 806 508 l 806 7 b 764 -35 806 -16 787 -35 b 722 7 741 -35 722 -16 l 722 465 l 194 465 l 194 7 b 153 -35 194 -16 176 -35 b 111 7 130 -35 111 -16 l 111 506 l 111 1007 b 153 1049 111 1030 129 1048 z "},"I":{"ha":639,"x_min":0,"x_max":0,"o":"m 118 1014 b 153 1049 118 1030 131 1049 l 486 1049 b 528 1007 509 1049 528 1030 b 486 965 528 984 509 965 l 361 965 l 361 49 l 486 49 b 528 7 509 49 528 30 b 486 -35 528 -16 509 -35 l 153 -35 b 111 9 125 -35 110 -10 b 153 49 112 28 128 49 l 278 49 l 278 965 l 153 965 b 118 1000 137 965 118 978 z "},"J":{"ha":806,"x_min":0,"x_max":0,"o":"m 652 1045 b 682 1034 663 1045 674 1041 b 695 1003 690 1026 695 1014 b 694 226 695 742 694 485 b 668 115 694 184 685 147 b 600 33 652 82 628 55 b 404 -35 545 -11 474 -33 b 206 25 334 -37 262 -18 b 138 106 178 46 155 73 b 111 226 121 140 111 181 b 153 267 111 249 130 267 b 194 226 176 267 194 249 b 212 144 194 193 201 166 b 256 91 222 123 238 105 b 402 49 294 62 347 47 b 549 98 456 50 510 68 b 595 153 568 114 584 132 b 611 226 605 174 611 198 l 611 962 l 375 962 b 333 1003 352 962 333 980 b 375 1045 333 1026 352 1045 z "},"K":{"ha":917,"x_min":0,"x_max":0,"o":"m 153 1049 b 194 1007 175 1049 194 1030 l 194 608 l 623 1036 b 652 1049 630 1043 641 1048 b 683 1036 665 1049 675 1044 b 695 1007 690 1028 695 1018 b 682 977 695 996 690 985 l 215 510 l 790 40 b 806 7 800 32 806 20 b 764 -35 806 -16 787 -35 b 737 -25 754 -35 744 -31 l 194 419 l 194 7 b 153 -35 194 -16 176 -35 b 111 7 130 -35 111 -16 l 111 1007 b 153 1049 111 1030 129 1048 z "},"L":{"ha":806,"x_min":0,"x_max":0,"o":"m 152 1049 b 194 1007 175 1049 194 1030 l 194 49 l 653 49 b 695 7 676 49 695 30 b 653 -35 695 -16 676 -35 l 153 -35 b 122 -22 141 -35 130 -30 b 111 7 115 -14 111 -4 l 111 1007 b 152 1049 111 1030 129 1048 z "},"M":{"ha":1194,"x_min":0,"x_max":0,"o":"m 152 1049 b 187 1030 166 1049 180 1042 l 597 415 l 1007 1030 b 1042 1049 1015 1042 1028 1049 b 1083 1007 1065 1049 1083 1030 l 1083 7 b 1042 -35 1083 -16 1065 -35 b 1000 7 1019 -35 1000 -16 l 1000 869 l 632 317 b 597 299 624 306 611 299 b 563 317 583 299 570 306 l 194 869 l 194 7 b 153 -35 194 -16 176 -35 b 111 7 130 -35 111 -16 l 111 1007 b 152 1049 111 1030 129 1048 z "},"N":{"ha":972,"x_min":0,"x_max":0,"o":"m 819 1049 b 861 1007 842 1049 861 1030 l 861 7 b 819 -35 861 -16 842 -35 b 785 -16 806 -35 792 -28 l 194 869 l 194 7 b 153 -35 194 -16 176 -35 b 111 7 130 -35 111 -16 l 111 1007 b 153 1049 111 1030 130 1049 b 187 1030 167 1049 180 1042 l 778 145 l 778 1007 b 819 1049 778 1030 796 1048 z "},"O":{"ha":1306,"x_min":0,"x_max":0,"o":"m 653 1049 b 1194 507 952 1049 1194 806 b 653 -35 1194 208 952 -35 b 111 507 354 -35 111 208 b 653 1049 111 806 354 1049 z m 653 965 b 194 507 400 965 194 760 b 653 49 194 254 400 49 b 1111 507 906 49 1111 254 b 653 965 1111 760 906 965 z "},"P":{"ha":847,"x_min":0,"x_max":0,"o":"m 153 1049 l 403 1049 b 653 939 511 1049 597 1005 b 736 701 709 873 736 786 b 653 464 736 616 709 530 b 403 354 597 398 511 354 l 194 354 l 194 7 b 153 -35 195 -16 176 -35 b 111 7 130 -35 111 -16 l 111 393 l 111 1007 b 153 1049 111 1030 130 1049 z m 194 965 l 194 438 l 403 438 b 590 518 489 438 549 470 b 653 701 631 567 653 634 b 590 885 653 769 631 836 b 403 965 549 933 489 965 z "},"Q":{"ha":1306,"x_min":0,"x_max":0,"o":"m 653 1049 b 1194 507 952 1049 1194 806 b 1021 110 1194 350 1128 210 l 1184 -77 b 1194 -104 1191 -84 1194 -95 b 1153 -146 1194 -127 1176 -146 b 1121 -132 1141 -146 1129 -140 l 956 58 b 653 -35 872 1 765 -35 b 111 507 354 -35 111 208 b 653 1049 111 806 354 1049 z m 653 965 b 194 507 400 965 194 760 b 653 49 194 254 400 49 b 900 121 744 49 826 74 l 733 313 b 722 340 726 320 722 330 b 763 382 722 363 740 381 b 795 368 776 382 788 376 l 966 172 b 1111 507 1054 255 1111 374 b 653 965 1111 760 906 965 z "},"R":{"ha":910,"x_min":0,"x_max":0,"o":"m 153 1049 l 403 1049 b 653 939 511 1049 597 1005 b 736 701 709 873 736 786 b 653 464 736 616 709 530 b 561 391 628 435 598 410 b 608 360 577 382 593 371 b 678 292 634 340 658 316 b 798 15 747 208 783 104 b 764 -33 802 -7 787 -29 b 716 2 741 -37 719 -21 b 614 239 703 79 670 170 b 558 294 597 259 578 278 b 397 354 515 327 464 349 l 194 354 l 194 7 b 153 -35 195 -16 176 -35 b 111 7 130 -35 111 -16 l 111 393 l 111 1007 b 153 1049 111 1030 130 1049 z m 194 965 l 194 438 l 403 438 b 590 518 489 438 549 470 b 653 701 631 567 653 634 b 590 885 653 769 631 836 b 403 965 549 933 489 965 z "},"S":{"ha":972,"x_min":0,"x_max":0,"o":"m 486 1049 b 703 970 567 1049 644 1017 b 806 785 762 923 806 858 b 764 743 806 762 787 743 b 722 785 741 743 722 762 b 651 905 722 823 697 868 b 486 965 606 941 544 965 b 321 905 428 965 366 941 b 250 785 276 868 250 823 b 271 684 250 741 258 709 b 327 623 285 659 303 640 b 524 551 376 590 448 570 b 746 472 600 532 680 514 b 829 388 780 451 809 424 b 861 257 850 352 861 308 b 819 122 861 205 845 160 b 727 34 795 86 763 57 b 486 -35 653 -12 563 -35 b 231 50 394 -35 302 -4 b 147 148 197 77 168 110 b 112 262 128 182 115 220 b 111 285 111 270 111 277 b 153 326 111 308 130 326 b 194 285 176 326 194 308 b 219 190 194 250 203 218 b 283 116 234 162 256 137 b 486 49 337 74 412 49 b 683 105 548 49 625 68 b 752 170 712 123 736 145 b 778 257 768 195 778 224 b 757 347 778 296 770 325 b 702 402 744 369 726 387 b 504 470 653 432 580 451 b 280 555 427 489 346 509 b 198 647 247 578 218 608 b 167 785 178 685 167 731 b 269 970 167 858 211 923 b 486 1049 328 1017 406 1049 z "},"T":{"ha":1076,"x_min":0,"x_max":0,"o":"m 111 1014 b 146 1049 111 1030 124 1049 l 923 1049 b 965 1007 946 1049 965 1030 b 923 965 965 984 946 965 l 576 965 l 576 7 b 535 -35 577 -16 558 -35 b 493 7 511 -35 493 -16 l 493 965 l 146 965 b 111 1000 130 965 111 978 z "},"U":{"ha":972,"x_min":0,"x_max":0,"o":"m 152 1049 b 194 1008 175 1049 194 1031 l 194 338 b 219 210 194 288 204 246 b 285 121 235 174 258 145 b 486 49 338 73 412 49 b 688 121 560 49 634 73 b 753 211 715 145 737 175 b 778 338 769 247 778 289 l 778 1008 b 819 1049 778 1031 796 1049 b 861 1008 842 1049 861 1031 l 861 338 b 827 173 861 276 849 221 b 743 59 807 127 778 89 b 486 -35 672 -4 578 -35 b 229 59 394 -35 300 -4 b 145 173 195 89 166 127 b 111 338 123 221 111 276 l 111 1008 b 152 1049 111 1030 129 1049 z "},"V":{"ha":1083,"x_min":0,"x_max":0,"o":"m 153 1049 b 192 1022 170 1048 186 1038 l 542 122 l 892 1022 b 931 1049 898 1038 913 1049 b 972 1007 954 1049 972 1030 b 969 992 972 1002 971 996 l 581 -8 b 542 -35 574 -24 559 -35 b 503 -8 525 -35 509 -24 l 114 992 b 111 1007 112 996 111 1002 b 153 1049 111 1030 130 1049 z "},"W":{"ha":1306,"x_min":0,"x_max":0,"o":"m 1153 1049 b 1194 1007 1176 1049 1194 1030 b 1194 1002 1194 1007 1195 1006 l 1083 2 b 1042 -35 1081 -19 1063 -35 b 1005 -13 1026 -35 1012 -26 l 653 641 l 301 -13 b 264 -35 293 -26 279 -35 b 222 2 243 -35 225 -19 l 163 535 l 112 1001 b 111 1007 112 1001 111 1002 b 153 1049 111 1030 130 1049 b 194 1011 174 1049 192 1032 l 242 581 l 291 144 l 616 749 b 653 771 623 762 638 771 b 689 749 668 771 682 762 l 1015 144 l 1111 1011 b 1153 1049 1113 1032 1131 1049 z "},"X":{"ha":1083,"x_min":0,"x_max":0,"o":"m 153 1049 b 186 1032 166 1048 178 1042 l 542 575 l 898 1032 b 930 1049 905 1042 918 1049 b 933 1049 934 1049 933 1049 b 972 1007 955 1048 972 1029 b 963 981 972 998 969 988 l 595 507 l 964 33 b 972 7 969 26 972 16 b 931 -35 972 -16 954 -35 b 898 -19 918 -35 906 -29 l 542 439 l 186 -19 b 153 -35 178 -29 166 -35 b 111 7 130 -35 111 -16 b 120 33 111 16 115 26 l 489 507 l 120 981 b 111 1007 115 988 111 998 b 153 1049 111 1030 130 1049 z "},"Y":{"ha":1083,"x_min":0,"x_max":0,"o":"m 152 1049 b 189 1028 167 1049 182 1041 l 542 423 l 895 1028 b 931 1049 902 1041 916 1049 b 972 1007 954 1048 972 1030 b 966 986 972 1000 970 991 l 583 329 l 583 7 b 542 -35 583 -16 565 -35 b 500 7 519 -35 500 -16 l 500 329 l 117 986 b 111 1007 114 991 111 1000 b 152 1049 111 1029 128 1048 z "},"Z":{"ha":972,"x_min":0,"x_max":0,"o":"m 153 1049 l 820 1049 b 861 1007 843 1049 861 1030 b 854 984 861 999 858 990 l 521 483 l 231 49 l 820 49 b 861 7 843 49 861 30 b 820 -35 861 -16 843 -35 l 153 -35 b 111 7 130 -35 111 -16 b 118 30 111 15 114 24 l 452 531 l 742 965 l 153 965 b 111 1007 130 965 111 984 b 153 1049 111 1030 130 1049 z "},"[":{"ha":472,"x_min":0,"x_max":0,"o":"m 153 1161 l 319 1161 b 361 1119 343 1161 361 1142 b 320 1078 361 1096 343 1078 l 194 1078 l 194 -61 l 319 -61 b 361 -103 343 -61 361 -80 b 320 -144 361 -126 343 -144 l 153 -144 b 122 -131 141 -144 130 -139 b 111 -103 115 -124 111 -114 l 111 1119 b 153 1161 111 1142 130 1161 z "},"\\":{"ha":694,"x_min":0,"x_max":0,"o":"m 153 1049 b 192 1022 170 1049 186 1038 l 581 22 b 583 7 582 18 583 12 b 542 -35 583 -16 565 -35 b 503 -8 524 -35 509 -24 l 114 992 b 111 1007 112 996 111 1002 b 153 1049 111 1030 130 1049 z "},"]":{"ha":472,"x_min":0,"x_max":0,"o":"m 320 1161 l 153 1161 b 111 1119 130 1161 111 1142 b 153 1078 111 1096 130 1078 l 278 1078 l 278 -61 l 153 -61 b 111 -103 130 -61 111 -80 b 153 -144 111 -126 130 -144 l 320 -144 b 350 -131 331 -144 342 -139 b 361 -103 357 -124 361 -114 l 361 1119 b 320 1161 361 1142 343 1161 z "},"^":{"ha":750,"x_min":0,"x_max":0,"o":"m 375 1049 b 408 1033 387 1049 400 1043 l 630 755 b 639 729 635 749 639 738 b 597 687 639 706 620 687 b 565 703 585 687 572 694 l 375 940 l 186 703 b 153 687 178 694 166 687 b 111 729 130 687 111 706 b 121 755 111 738 115 749 l 343 1033 b 375 1049 350 1043 362 1049 z "},"_":{"ha":917,"x_min":0,"x_max":0,"o":"m 153 49 l 764 49 b 806 7 787 49 806 30 b 764 -35 806 -16 787 -35 l 153 -35 b 111 7 130 -35 111 -16 b 153 49 111 30 130 49 z "},"`":{"ha":306,"x_min":0,"x_max":0,"o":"m 153 1049 b 194 1007 175 1049 194 1030 l 194 840 b 153 798 194 817 176 798 b 111 840 130 798 111 817 l 111 1007 b 153 1049 111 1030 129 1048 z "},"a":{"ha":1083,"x_min":0,"x_max":0,"o":"m 542 1049 b 581 1022 559 1049 574 1038 l 969 22 b 972 7 971 18 972 11 b 931 -35 972 -16 954 -35 b 892 -8 913 -35 898 -24 l 772 299 l 311 299 l 192 -8 b 153 -35 186 -24 170 -35 b 111 7 130 -35 111 -16 b 114 22 111 11 112 18 l 503 1022 b 542 1049 509 1038 525 1049 z m 542 892 l 343 382 l 740 382 z "},"b":{"ha":910,"x_min":0,"x_max":0,"o":"m 153 1049 l 403 1049 b 757 757 629 1049 757 907 b 605 512 757 661 706 568 b 799 257 727 463 799 363 b 403 -35 799 102 653 -35 l 153 -35 b 122 -22 141 -35 130 -30 b 111 7 115 -14 111 -4 l 111 1007 b 153 1049 111 1030 130 1049 z m 194 965 l 194 549 l 403 549 b 674 757 593 549 674 657 b 403 965 674 857 593 965 z m 194 465 l 194 49 l 403 49 b 715 257 625 49 715 161 b 403 465 715 352 625 465 z "},"c":{"ha":1139,"x_min":0,"x_max":0,"o":"m 644 1048 b 1002 921 771 1050 898 1008 b 1017 889 1011 914 1017 901 b 1005 860 1017 878 1012 868 b 975 847 998 852 987 847 b 948 857 965 847 955 851 b 641 965 859 932 749 968 b 316 818 522 962 404 912 b 289 786 307 808 298 797 b 273 763 283 778 278 771 b 194 500 219 684 193 592 b 281 239 196 408 225 316 b 298 216 286 231 292 223 b 326 185 307 205 316 195 b 406 121 350 161 377 139 b 430 106 414 116 422 111 b 443 99 434 104 439 101 b 469 87 452 95 460 91 b 483 81 473 85 478 83 b 638 49 532 61 584 50 b 958 165 756 45 871 87 b 986 176 965 172 976 176 b 1028 134 1009 176 1028 157 b 1014 103 1028 122 1022 111 b 879 14 973 67 927 37 b 635 -35 803 -20 720 -37 b 451 4 571 -33 509 -19 b 435 11 446 6 440 8 b 419 18 430 13 424 15 b 404 25 414 20 409 23 b 389 33 399 28 394 31 b 374 42 384 36 379 39 b 360 51 369 45 364 48 b 266 127 326 73 295 98 b 233 164 255 139 244 151 b 213 190 226 173 220 181 b 204 204 210 194 207 199 b 111 499 144 293 113 395 b 195 796 110 602 137 706 b 204 810 198 801 201 806 b 223 836 210 819 216 828 b 255 875 233 850 244 862 b 644 1048 360 987 501 1046 z "},"d":{"ha":1061,"x_min":0,"x_max":0,"o":"m 153 1049 l 399 1049 b 812 879 579 1049 719 981 b 951 507 905 776 951 641 b 812 135 951 373 905 238 b 399 -35 719 33 579 -35 l 153 -35 b 122 -22 141 -35 130 -30 b 111 7 115 -14 111 -4 l 111 1007 b 153 1049 111 1030 130 1049 z m 194 965 l 194 49 l 399 49 b 751 191 558 49 673 106 b 867 507 828 276 867 391 b 751 823 867 623 828 738 b 399 965 673 908 558 965 z "},"e":{"ha":806,"x_min":0,"x_max":0,"o":"m 153 1049 l 653 1049 b 695 1007 676 1049 695 1030 b 653 965 695 984 676 965 l 194 965 l 194 549 l 597 549 b 639 507 620 549 639 530 b 597 465 639 484 620 465 l 194 465 l 194 49 l 653 49 b 695 7 676 49 695 30 b 653 -35 695 -16 676 -35 l 153 -35 b 122 -22 141 -35 130 -30 b 111 7 115 -14 111 -4 l 111 506 l 111 1007 b 153 1049 111 1030 130 1049 z "},"f":{"ha":806,"x_min":0,"x_max":0,"o":"m 153 1049 l 653 1049 b 695 1007 676 1049 695 1030 b 653 965 695 984 676 965 l 194 965 l 194 549 l 597 549 b 639 507 620 549 639 530 b 597 465 639 484 620 465 l 194 465 l 194 7 b 153 -35 194 -16 176 -35 b 111 7 130 -35 111 -16 l 111 506 l 111 1007 b 153 1049 111 1030 130 1049 z "},"g":{"ha":1306,"x_min":0,"x_max":0,"o":"m 655 1050 b 1002 923 779 1049 902 1006 b 1005 862 1023 905 1019 876 b 948 859 992 848 967 842 b 375 873 784 997 546 1003 b 363 863 371 870 367 866 b 234 694 306 817 263 759 b 237 316 182 577 180 439 b 749 60 326 121 540 15 b 1109 466 946 102 1090 266 l 681 466 b 639 510 653 466 638 491 b 681 550 640 529 656 550 l 1153 550 b 1195 508 1176 550 1194 531 l 1194 504 b 767 -23 1193 251 1015 31 b 161 280 519 -76 267 50 b 159 730 93 426 96 590 b 312 929 193 806 244 874 b 324 939 316 932 320 936 b 644 1050 419 1011 531 1048 b 655 1050 648 1050 652 1050 z "},"h":{"ha":917,"x_min":0,"x_max":0,"o":"m 153 1049 b 194 1007 175 1049 194 1030 l 194 549 l 722 549 l 722 1007 b 764 1049 722 1030 740 1048 b 806 1007 787 1049 806 1030 l 806 508 l 806 7 b 764 -35 806 -16 787 -35 b 722 7 741 -35 722 -16 l 722 465 l 194 465 l 194 7 b 153 -35 194 -16 176 -35 b 111 7 130 -35 111 -16 l 111 506 l 111 1007 b 153 1049 111 1030 129 1048 z "},"i":{"ha":639,"x_min":0,"x_max":0,"o":"m 118 1014 b 153 1049 118 1030 131 1049 l 486 1049 b 528 1007 509 1049 528 1030 b 486 965 528 984 509 965 l 361 965 l 361 49 l 486 49 b 528 7 509 49 528 30 b 486 -35 528 -16 509 -35 l 153 -35 b 111 9 125 -35 110 -10 b 153 49 112 28 128 49 l 278 49 l 278 965 l 153 965 b 118 1000 137 965 118 978 z "},"j":{"ha":806,"x_min":0,"x_max":0,"o":"m 652 1045 b 682 1034 663 1045 674 1041 b 695 1003 690 1026 695 1014 b 694 226 695 742 694 485 b 668 115 694 184 685 147 b 600 33 652 82 628 55 b 404 -35 545 -11 474 -33 b 206 25 334 -37 262 -18 b 138 106 178 46 155 73 b 111 226 121 140 111 181 b 153 267 111 249 130 267 b 194 226 176 267 194 249 b 212 144 194 193 201 166 b 256 91 222 123 238 105 b 402 49 294 62 347 47 b 549 98 456 50 510 68 b 595 153 568 114 584 132 b 611 226 605 174 611 198 l 611 962 l 375 962 b 333 1003 352 962 333 980 b 375 1045 333 1026 352 1045 z "},"k":{"ha":917,"x_min":0,"x_max":0,"o":"m 153 1049 b 194 1007 175 1049 194 1030 l 194 608 l 623 1036 b 652 1049 630 1043 641 1048 b 683 1036 665 1049 675 1044 b 695 1007 690 1028 695 1018 b 682 977 695 996 690 985 l 215 510 l 790 40 b 806 7 800 32 806 20 b 764 -35 806 -16 787 -35 b 737 -25 754 -35 744 -31 l 194 419 l 194 7 b 153 -35 194 -16 176 -35 b 111 7 130 -35 111 -16 l 111 1007 b 153 1049 111 1030 129 1048 z "},"l":{"ha":806,"x_min":0,"x_max":0,"o":"m 152 1049 b 194 1007 175 1049 194 1030 l 194 49 l 653 49 b 695 7 676 49 695 30 b 653 -35 695 -16 676 -35 l 153 -35 b 122 -22 141 -35 130 -30 b 111 7 115 -14 111 -4 l 111 1007 b 152 1049 111 1030 129 1048 z "},"m":{"ha":1194,"x_min":0,"x_max":0,"o":"m 152 1049 b 187 1030 166 1049 180 1042 l 597 415 l 1007 1030 b 1042 1049 1015 1042 1028 1049 b 1083 1007 1065 1049 1083 1030 l 1083 7 b 1042 -35 1083 -16 1065 -35 b 1000 7 1019 -35 1000 -16 l 1000 869 l 632 317 b 597 299 624 306 611 299 b 563 317 583 299 570 306 l 194 869 l 194 7 b 153 -35 194 -16 176 -35 b 111 7 130 -35 111 -16 l 111 1007 b 152 1049 111 1030 129 1048 z "},"n":{"ha":972,"x_min":0,"x_max":0,"o":"m 819 1049 b 861 1007 842 1049 861 1030 l 861 7 b 819 -35 861 -16 842 -35 b 785 -16 806 -35 792 -28 l 194 869 l 194 7 b 153 -35 194 -16 176 -35 b 111 7 130 -35 111 -16 l 111 1007 b 153 1049 111 1030 130 1049 b 187 1030 167 1049 180 1042 l 778 145 l 778 1007 b 819 1049 778 1030 796 1048 z "},"o":{"ha":1306,"x_min":0,"x_max":0,"o":"m 653 1049 b 1194 507 952 1049 1194 806 b 653 -35 1194 208 952 -35 b 111 507 354 -35 111 208 b 653 1049 111 806 354 1049 z m 653 965 b 194 507 400 965 194 760 b 653 49 194 254 400 49 b 1111 507 906 49 1111 254 b 653 965 1111 760 906 965 z "},"p":{"ha":847,"x_min":0,"x_max":0,"o":"m 153 1049 l 403 1049 b 653 939 511 1049 597 1005 b 736 701 709 873 736 786 b 653 464 736 616 709 530 b 403 354 597 398 511 354 l 194 354 l 194 7 b 153 -35 195 -16 176 -35 b 111 7 130 -35 111 -16 l 111 393 l 111 1007 b 153 1049 111 1030 130 1049 z m 194 965 l 194 438 l 403 438 b 590 518 489 438 549 470 b 653 701 631 567 653 634 b 590 885 653 769 631 836 b 403 965 549 933 489 965 z "},"q":{"ha":1306,"x_min":0,"x_max":0,"o":"m 653 1049 b 1194 507 952 1049 1194 806 b 1021 110 1194 350 1128 210 l 1184 -77 b 1194 -104 1191 -84 1194 -95 b 1153 -146 1194 -127 1176 -146 b 1121 -132 1141 -146 1129 -140 l 956 58 b 653 -35 872 1 765 -35 b 111 507 354 -35 111 208 b 653 1049 111 806 354 1049 z m 653 965 b 194 507 400 965 194 760 b 653 49 194 254 400 49 b 900 121 744 49 826 74 l 733 313 b 722 340 726 320 722 330 b 763 382 722 363 740 381 b 795 368 776 382 788 376 l 966 172 b 1111 507 1054 255 1111 374 b 653 965 1111 760 906 965 z "},"r":{"ha":910,"x_min":0,"x_max":0,"o":"m 153 1049 l 403 1049 b 653 939 511 1049 597 1005 b 736 701 709 873 736 786 b 653 464 736 616 709 530 b 561 391 628 435 598 410 b 608 360 577 382 593 371 b 678 292 634 340 658 316 b 798 15 747 208 783 104 b 764 -33 802 -7 787 -29 b 716 2 741 -37 719 -21 b 614 239 703 79 670 170 b 558 294 597 259 578 278 b 397 354 515 327 464 349 l 194 354 l 194 7 b 153 -35 195 -16 176 -35 b 111 7 130 -35 111 -16 l 111 393 l 111 1007 b 153 1049 111 1030 130 1049 z m 194 965 l 194 438 l 403 438 b 590 518 489 438 549 470 b 653 701 631 567 653 634 b 590 885 653 769 631 836 b 403 965 549 933 489 965 z "},"s":{"ha":972,"x_min":0,"x_max":0,"o":"m 486 1049 b 703 970 567 1049 644 1017 b 806 785 762 923 806 858 b 764 743 806 762 787 743 b 722 785 741 743 722 762 b 651 905 722 823 697 868 b 486 965 606 941 544 965 b 321 905 428 965 366 941 b 250 785 276 868 250 823 b 271 684 250 741 258 709 b 327 623 285 659 303 640 b 524 551 376 590 448 570 b 746 472 600 532 680 514 b 829 388 780 451 809 424 b 861 257 850 352 861 308 b 819 122 861 205 845 160 b 727 34 795 86 763 57 b 486 -35 653 -12 563 -35 b 231 50 394 -35 302 -4 b 147 148 197 77 168 110 b 112 262 128 182 115 220 b 111 285 111 270 111 277 b 153 326 111 308 130 326 b 194 285 176 326 194 308 b 219 190 194 250 203 218 b 283 116 234 162 256 137 b 486 49 337 74 412 49 b 683 105 548 49 625 68 b 752 170 712 123 736 145 b 778 257 768 195 778 224 b 757 347 778 296 770 325 b 702 402 744 369 726 387 b 504 470 653 432 580 451 b 280 555 427 489 346 509 b 198 647 247 578 218 608 b 167 785 178 685 167 731 b 269 970 167 858 211 923 b 486 1049 328 1017 406 1049 z "},"t":{"ha":1076,"x_min":0,"x_max":0,"o":"m 111 1014 b 146 1049 111 1030 124 1049 l 923 1049 b 965 1007 946 1049 965 1030 b 923 965 965 984 946 965 l 576 965 l 576 7 b 535 -35 577 -16 558 -35 b 493 7 511 -35 493 -16 l 493 965 l 146 965 b 111 1000 130 965 111 978 z "},"u":{"ha":972,"x_min":0,"x_max":0,"o":"m 152 1049 b 194 1008 175 1049 194 1031 l 194 338 b 219 210 194 288 204 246 b 285 121 235 174 258 145 b 486 49 338 73 412 49 b 688 121 560 49 634 73 b 753 211 715 145 737 175 b 778 338 769 247 778 289 l 778 1008 b 819 1049 778 1031 796 1049 b 861 1008 842 1049 861 1031 l 861 338 b 827 173 861 276 849 221 b 743 59 807 127 778 89 b 486 -35 672 -4 578 -35 b 229 59 394 -35 300 -4 b 145 173 195 89 166 127 b 111 338 123 221 111 276 l 111 1008 b 152 1049 111 1030 129 1049 z "},"v":{"ha":1083,"x_min":0,"x_max":0,"o":"m 153 1049 b 192 1022 170 1048 186 1038 l 542 122 l 892 1022 b 931 1049 898 1038 913 1049 b 972 1007 954 1049 972 1030 b 969 992 972 1002 971 996 l 581 -8 b 542 -35 574 -24 559 -35 b 503 -8 525 -35 509 -24 l 114 992 b 111 1007 112 996 111 1002 b 153 1049 111 1030 130 1049 z "},"w":{"ha":1306,"x_min":0,"x_max":0,"o":"m 1153 1049 b 1194 1007 1176 1049 1194 1030 b 1194 1002 1194 1007 1195 1006 l 1083 2 b 1042 -35 1081 -19 1063 -35 b 1005 -13 1026 -35 1012 -26 l 653 641 l 301 -13 b 264 -35 293 -26 279 -35 b 222 2 243 -35 225 -19 l 163 535 l 112 1001 b 111 1007 112 1001 111 1002 b 153 1049 111 1030 130 1049 b 194 1011 174 1049 192 1032 l 242 581 l 291 144 l 616 749 b 653 771 623 762 638 771 b 689 749 668 771 682 762 l 1015 144 l 1111 1011 b 1153 1049 1113 1032 1131 1049 z "},"x":{"ha":1083,"x_min":0,"x_max":0,"o":"m 153 1049 b 186 1032 166 1048 178 1042 l 542 575 l 898 1032 b 930 1049 905 1042 918 1049 b 933 1049 934 1049 933 1049 b 972 1007 955 1048 972 1029 b 963 981 972 998 969 988 l 595 507 l 964 33 b 972 7 969 26 972 16 b 931 -35 972 -16 954 -35 b 898 -19 918 -35 906 -29 l 542 439 l 186 -19 b 153 -35 178 -29 166 -35 b 111 7 130 -35 111 -16 b 120 33 111 16 115 26 l 489 507 l 120 981 b 111 1007 115 988 111 998 b 153 1049 111 1030 130 1049 z "},"y":{"ha":1083,"x_min":0,"x_max":0,"o":"m 152 1049 b 189 1028 167 1049 182 1041 l 542 423 l 895 1028 b 931 1049 902 1041 916 1049 b 972 1007 954 1048 972 1030 b 966 986 972 1000 970 991 l 583 329 l 583 7 b 542 -35 583 -16 565 -35 b 500 7 519 -35 500 -16 l 500 329 l 117 986 b 111 1007 114 991 111 1000 b 152 1049 111 1029 128 1048 z "},"z":{"ha":972,"x_min":0,"x_max":0,"o":"m 153 1049 l 820 1049 b 861 1007 843 1049 861 1030 b 854 984 861 999 858 990 l 521 483 l 231 49 l 820 49 b 861 7 843 49 861 30 b 820 -35 861 -16 843 -35 l 153 -35 b 111 7 130 -35 111 -16 b 118 30 111 15 114 24 l 452 531 l 742 965 l 153 965 b 111 1007 130 965 111 984 b 153 1049 111 1030 130 1049 z "},"{":{"ha":583,"x_min":0,"x_max":0,"o":"m 429 1165 b 472 1123 452 1164 472 1146 b 439 1083 472 1103 458 1086 b 373 1052 411 1077 390 1067 b 331 995 356 1038 342 1019 b 291 814 309 947 298 882 b 268 615 285 746 281 675 b 237 530 261 584 252 555 b 218 507 231 521 227 516 b 243 466 227 496 236 480 b 268 386 254 441 262 414 b 291 190 281 324 285 255 b 331 23 298 126 309 66 b 371 -28 341 2 354 -15 b 438 -58 388 -42 410 -52 b 472 -99 458 -61 472 -79 b 431 -140 472 -122 454 -140 b 422 -140 428 -140 424 -140 b 320 -93 382 -131 347 -115 b 256 -14 292 -71 271 -44 b 209 182 226 45 216 114 b 187 369 201 249 198 316 b 167 431 182 393 175 414 b 130 478 157 452 145 467 b 111 512 118 485 111 499 b 140 552 111 530 123 546 b 156 562 146 554 151 557 b 166 574 159 565 163 569 b 187 632 174 587 181 607 b 209 822 198 683 201 751 b 256 1030 216 893 226 966 b 319 1115 271 1062 291 1092 b 423 1164 347 1139 380 1156 b 429 1165 424 1165 426 1165 z "},"|":{"ha":306,"x_min":0,"x_max":0,"o":"m 153 1160 b 194 1118 175 1160 194 1141 l 194 -104 b 153 -146 194 -127 176 -146 b 111 -104 130 -146 111 -127 l 111 1118 b 153 1160 111 1141 129 1159 z "},"}":{"ha":583,"x_min":0,"x_max":0,"o":"m 155 1165 b 111 1123 132 1164 111 1146 b 145 1083 111 1103 126 1086 b 211 1052 173 1077 194 1067 b 252 995 228 1038 241 1019 b 292 814 275 947 285 882 b 315 615 299 746 302 675 b 347 530 322 584 331 555 b 365 507 352 521 356 516 b 341 466 357 496 347 480 b 315 386 329 441 321 414 b 292 190 302 324 299 255 b 253 23 285 126 275 66 b 213 -28 242 2 229 -15 b 145 -58 196 -42 174 -52 b 111 -99 126 -61 111 -79 b 153 -140 111 -122 130 -140 b 161 -140 155 -140 160 -140 b 264 -93 202 -131 236 -115 b 327 -14 291 -71 312 -44 b 375 182 358 45 368 114 b 397 369 382 249 386 316 b 416 431 402 393 408 414 b 454 478 426 452 438 467 b 472 512 465 485 472 499 b 444 552 472 530 461 546 b 427 562 437 554 432 557 b 418 574 424 565 421 569 b 397 632 410 587 402 607 b 375 822 386 683 382 751 b 328 1030 368 893 358 966 b 265 1115 313 1062 292 1092 b 161 1164 237 1139 203 1156 b 155 1165 159 1165 157 1165 z "},"~":{"ha":1028,"x_min":0,"x_max":0,"o":"m 875 610 b 917 568 897 610 917 592 b 910 545 917 561 914 551 b 668 360 824 417 748 360 b 487 453 591 360 534 413 b 359 527 437 496 396 527 b 188 379 325 527 269 500 b 153 360 180 367 167 360 b 111 402 130 360 111 379 b 118 425 111 409 114 419 b 359 610 203 553 280 610 b 541 517 437 610 494 557 b 668 443 591 474 632 443 b 840 591 703 443 759 470 b 875 610 847 602 860 610 z "},"¡":{"ha":319,"x_min":0,"x_max":0,"o":"m 160 -36 b 118 6 137 -36 118 -18 l 118 783 b 160 825 118 807 137 825 b 201 784 183 825 201 807 l 201 6 b 160 -36 201 -17 183 -36 z m 160 943 b 111 992 133 943 111 965 b 160 1040 111 1019 133 1040 b 208 992 187 1040 208 1019 b 160 943 208 965 187 943 z "},"¢":{"ha":1139,"x_min":0,"x_max":0,"o":"m 589 1166 b 631 1125 612 1166 631 1148 l 631 1048 b 644 1048 634 1048 640 1048 b 801 1028 697 1049 750 1042 b 986 934 867 1009 929 978 b 1002 921 991 930 997 925 b 1017 889 1011 914 1017 901 b 1005 860 1017 878 1012 868 b 975 847 998 852 987 847 b 948 857 965 847 955 851 b 934 868 944 861 939 865 b 776 948 886 906 832 933 b 631 965 728 962 682 967 l 631 49 b 638 49 631 49 636 49 b 894 117 729 46 818 70 b 916 131 902 122 909 126 b 937 147 923 136 930 141 b 958 165 944 153 951 159 b 986 176 965 172 976 176 b 1028 134 1009 176 1028 157 b 1014 103 1028 122 1022 111 b 988 81 1006 96 997 88 b 964 63 980 75 972 69 b 937 46 955 57 946 51 b 911 30 928 40 920 35 b 635 -35 827 -15 732 -38 b 631 -35 634 -35 635 -35 l 631 -98 b 589 -139 631 -121 612 -139 b 548 -98 566 -139 548 -121 l 548 -25 b 266 127 444 -4 344 48 b 255 875 64 333 59 663 b 548 1038 336 962 439 1017 l 548 1125 b 589 1166 548 1147 566 1166 z m 548 953 b 316 818 464 933 381 888 b 326 185 150 638 154 360 b 548 61 387 123 463 81 z "},"£":{"ha":917,"x_min":0,"x_max":0,"o":"m 542 1049 b 662 1026 588 1049 628 1041 b 747 964 697 1012 726 990 b 806 785 790 913 806 847 b 764 743 806 762 787 743 b 722 785 741 743 722 762 b 683 911 722 834 710 879 b 629 950 670 927 653 940 b 542 965 607 959 578 965 b 430 941 499 965 462 956 b 347 879 397 926 370 904 b 278 701 302 827 278 760 l 278 549 l 597 549 b 639 507 620 549 639 530 b 597 465 639 484 620 465 l 278 465 l 278 285 b 272 123 278 231 282 177 b 247 50 267 98 260 74 b 246 49 246 49 247 50 l 764 49 b 806 7 787 49 806 30 b 764 -35 806 -16 787 -35 l 153 -35 b 111 7 130 -35 111 -16 b 129 41 111 20 118 33 b 174 90 151 57 165 73 b 190 138 182 104 187 120 b 195 285 197 177 195 227 l 195 465 l 153 465 b 111 507 130 465 111 484 b 153 549 111 530 130 549 l 195 549 l 195 701 b 285 934 195 782 226 867 b 395 1017 315 967 351 996 b 529 1048 435 1035 480 1047 b 542 1049 533 1049 537 1049 z "},"€":{"ha":1096,"x_min":0,"x_max":0,"o":"m 621 1069 b 961 944 741 1068 863 1027 b 974 917 970 936 974 928 b 939 882 974 898 958 882 b 917 890 930 882 924 884 b 276 851 727 1050 445 1033 b 184 705 235 807 205 757 l 579 705 b 614 670 599 705 614 689 b 579 635 614 651 598 635 l 163 635 b 160 446 149 574 148 509 l 576 446 b 610 412 595 446 610 431 b 576 377 610 392 595 377 l 179 377 b 285 208 201 316 237 258 b 602 69 369 123 483 73 b 927 188 722 66 838 108 b 951 197 934 194 941 197 b 985 162 970 197 985 181 b 974 136 985 151 982 143 b 600 0 871 44 737 -4 b 236 160 463 4 332 62 b 106 377 174 223 131 296 l -35 377 b -70 412 -55 377 -70 392 b -36 446 -70 431 -55 446 l 90 446 b 92 635 80 506 80 572 l -32 635 b -67 670 -51 635 -67 651 b -32 705 -67 689 -51 705 l 110 705 b 225 898 133 773 172 840 b 609 1069 328 1009 468 1067 b 621 1069 613 1069 617 1069 z "},"¥":{"ha":1083,"x_min":0,"x_max":0,"o":"m 152 1049 b 189 1028 167 1049 182 1041 l 542 423 l 895 1028 b 931 1049 902 1041 916 1049 b 972 1007 954 1048 972 1030 b 966 986 972 1000 970 991 l 614 382 l 820 382 b 861 340 843 382 861 363 b 820 299 861 317 843 299 l 583 299 l 583 215 l 820 215 b 861 174 843 215 861 197 b 820 132 861 151 843 132 l 583 132 l 583 7 b 542 -35 583 -16 565 -35 b 500 7 519 -35 500 -16 l 500 132 l 264 132 b 222 174 241 132 222 151 b 264 215 222 197 241 215 l 500 215 l 500 299 l 264 299 b 222 340 241 299 222 317 b 264 382 222 363 241 382 l 469 382 l 117 986 b 111 1007 114 991 111 1000 b 152 1049 111 1029 128 1048 z "},"ª":{"ha":596,"x_min":0,"x_max":0,"o":"m 298 1014 b 267 994 283 1014 273 1007 l 114 668 b 111 653 112 662 111 660 b 145 619 111 635 126 619 b 176 639 159 619 170 626 l 219 730 l 377 730 l 420 639 b 451 619 426 626 437 619 b 485 653 469 619 485 635 b 482 668 485 660 484 662 l 329 994 b 298 1014 323 1007 312 1013 z m 298 900 l 345 799 l 251 799 z "},"¹":{"ha":513,"x_min":0,"x_max":0,"o":"m 256 1014 b 290 980 275 1014 290 999 l 290 681 l 367 681 b 402 647 386 681 402 665 b 368 613 402 628 386 613 l 257 613 l 145 613 b 111 647 126 613 111 628 b 145 681 111 665 126 681 l 222 681 l 222 925 l 161 894 b 145 890 155 891 152 890 b 111 924 126 890 111 905 b 130 955 111 938 118 949 l 241 1010 b 256 1014 247 1013 248 1014 z "},"º":{"ha":585,"x_min":0,"x_max":0,"o":"m 292 1014 b 474 809 396 1014 474 918 b 292 604 474 700 396 604 b 111 809 188 604 111 700 b 292 1014 111 918 188 1014 z m 292 946 b 179 809 234 946 179 889 b 292 672 179 729 234 672 b 406 809 351 672 406 729 b 292 946 406 889 351 946 z "},"¿":{"ha":917,"x_min":0,"x_max":0,"o":"m 458 -35 b 297 -7 396 -35 342 -24 b 193 61 255 10 220 33 b 111 257 136 118 111 191 b 128 379 111 304 117 344 b 167 458 137 410 151 436 b 283 556 201 505 245 532 b 377 633 322 580 354 602 b 405 692 389 649 398 668 b 417 785 412 716 417 746 b 458 826 417 808 435 826 b 500 785 481 826 500 808 b 485 668 500 740 495 701 b 444 584 475 635 461 607 b 328 486 410 537 366 510 b 234 409 290 461 257 440 b 206 351 223 393 213 375 b 194 257 199 326 194 296 b 252 120 194 212 212 160 b 328 71 271 100 296 83 b 458 49 363 57 405 49 b 590 71 512 49 555 57 b 665 120 621 84 646 101 b 722 257 705 160 722 212 b 764 299 722 280 741 299 b 806 257 787 299 806 280 b 724 61 806 191 781 118 b 618 -7 696 33 661 10 b 474 -35 577 -23 529 -33 b 458 -35 469 -35 464 -35 z m 458 951 b 410 1000 431 951 410 973 b 458 1049 410 1027 431 1049 b 507 1000 485 1049 507 1027 b 458 951 507 973 485 951 z "},"À":{"ha":1083,"x_min":0,"x_max":0,"o":"m 431 1327 b 461 1314 442 1327 454 1322 l 627 1148 b 640 1118 635 1141 640 1129 b 598 1076 640 1095 621 1076 b 568 1089 587 1076 576 1081 l 402 1255 b 390 1285 395 1263 390 1274 b 431 1327 390 1308 408 1327 z m 542 1049 b 581 1022 559 1049 574 1038 l 969 22 b 972 7 971 18 972 12 b 931 -35 972 -16 954 -35 b 892 -8 913 -35 898 -24 l 772 299 l 311 299 l 192 -8 b 153 -35 186 -24 170 -35 b 111 7 130 -35 111 -16 b 114 22 111 11 112 18 l 503 1022 b 542 1049 509 1038 525 1049 z m 542 892 l 343 382 l 740 382 z "},"Á":{"ha":1083,"x_min":0,"x_max":0,"o":"m 652 1327 b 622 1314 641 1327 630 1322 l 456 1148 b 443 1118 448 1141 443 1129 b 485 1076 443 1095 462 1076 b 515 1089 496 1076 508 1081 l 681 1255 b 694 1285 689 1263 694 1274 b 652 1327 694 1308 675 1327 z m 542 1049 b 503 1022 525 1049 509 1038 l 114 22 b 111 7 112 18 111 12 b 153 -35 111 -16 130 -35 b 192 -8 170 -35 186 -24 l 311 299 l 772 299 l 892 -8 b 931 -35 898 -24 913 -35 b 972 7 954 -35 972 -16 b 969 22 972 11 971 18 l 581 1022 b 542 1049 574 1038 559 1049 z m 542 892 l 740 382 l 343 382 z "},"Â":{"ha":1083,"x_min":0,"x_max":0,"o":"m 541 1327 b 571 1315 552 1327 563 1322 l 738 1148 b 750 1118 745 1141 750 1129 b 737 1088 750 1106 745 1096 b 708 1077 730 1081 719 1077 b 679 1089 697 1077 686 1082 l 542 1226 l 405 1089 b 375 1077 397 1082 386 1077 b 345 1090 363 1077 352 1082 b 333 1118 338 1097 333 1107 b 346 1148 333 1129 338 1141 l 512 1315 b 541 1327 520 1322 531 1327 z m 542 1049 b 581 1022 559 1049 574 1038 l 969 22 b 972 7 971 18 972 11 b 931 -35 972 -16 954 -35 b 892 -8 913 -35 898 -24 l 772 299 l 311 299 l 192 -8 b 153 -35 186 -24 170 -35 b 111 7 130 -35 111 -16 b 114 22 111 11 112 18 l 503 1022 b 542 1049 509 1038 525 1049 z m 542 892 l 343 382 l 740 382 z "},"Ã":{"ha":1083,"x_min":0,"x_max":0,"o":"m 471 1303 b 573 1257 518 1304 551 1275 b 624 1224 598 1237 617 1224 b 638 1228 628 1223 630 1223 b 674 1266 646 1233 659 1245 b 708 1283 682 1277 695 1283 b 750 1242 731 1283 750 1265 b 742 1217 750 1233 747 1224 b 682 1157 723 1191 704 1170 b 631 1140 666 1147 649 1141 b 614 1141 626 1140 620 1140 b 521 1192 571 1146 542 1175 b 473 1220 497 1211 480 1220 b 441 1202 468 1219 458 1218 b 409 1163 432 1193 422 1180 b 375 1144 402 1151 389 1144 b 333 1186 352 1144 333 1163 b 341 1210 333 1194 336 1204 b 384 1262 355 1231 370 1248 b 471 1303 411 1288 440 1302 z m 542 1049 b 581 1022 559 1049 574 1038 l 969 22 b 972 7 971 18 972 12 b 931 -35 972 -16 954 -35 b 892 -8 913 -35 898 -24 l 772 299 l 311 299 l 281 223 l 192 -8 b 153 -35 186 -24 170 -35 b 111 7 130 -35 111 -16 b 114 22 111 11 112 18 l 204 254 l 503 1022 b 542 1049 509 1038 525 1049 z m 542 892 l 343 382 l 740 382 z "},"Ä":{"ha":1083,"x_min":0,"x_max":0,"o":"m 417 1222 b 465 1174 444 1222 465 1200 b 417 1125 465 1147 444 1125 b 368 1174 390 1125 368 1147 b 417 1222 368 1200 390 1222 z m 667 1222 b 715 1174 694 1222 715 1200 b 667 1125 715 1147 694 1125 b 618 1174 640 1125 618 1147 b 667 1222 618 1200 640 1222 z m 542 1049 b 581 1022 559 1049 574 1038 l 969 22 b 972 7 971 18 972 11 b 931 -35 972 -16 954 -35 b 892 -8 913 -35 898 -24 l 772 299 l 311 299 l 192 -8 b 153 -35 186 -24 170 -35 b 111 7 130 -35 111 -16 b 114 22 111 11 112 18 l 503 1022 b 542 1049 509 1038 525 1049 z m 542 892 l 343 382 l 740 382 z "},"Å":{"ha":1083,"x_min":0,"x_max":0,"o":"m 542 1326 b 667 1201 611 1326 667 1270 b 542 1076 667 1132 611 1076 b 417 1201 473 1076 417 1132 b 542 1326 417 1270 473 1326 z m 542 1243 b 500 1201 519 1243 500 1225 b 542 1160 500 1178 519 1160 b 583 1201 565 1160 583 1178 b 542 1243 583 1225 565 1243 z m 542 1049 b 581 1022 559 1049 574 1038 l 969 22 b 972 7 971 18 972 12 b 931 -35 972 -16 954 -35 b 892 -8 913 -35 898 -24 l 772 299 l 311 299 l 192 -8 b 153 -35 186 -24 170 -35 b 111 7 130 -35 111 -16 b 114 22 111 11 112 18 l 503 1022 b 542 1049 509 1038 525 1049 z m 542 892 l 343 382 l 740 382 z "},"Æ":{"ha":1250,"x_min":0,"x_max":0,"o":"m 653 1049 l 1097 1049 b 1139 1007 1120 1049 1139 1030 b 1097 965 1139 984 1120 965 l 694 965 l 694 549 l 1042 549 b 1083 507 1065 549 1083 530 b 1042 465 1083 484 1065 465 l 694 465 b 695 285 694 406 695 355 b 694 279 695 283 695 281 l 694 49 l 1097 49 b 1139 7 1120 49 1139 30 b 1097 -35 1139 -16 1120 -35 l 653 -35 b 622 -22 641 -35 630 -30 b 611 7 615 -14 611 -4 l 611 243 l 317 243 l 190 -12 b 153 -35 183 -26 169 -35 b 111 7 130 -35 111 -16 b 116 26 111 13 113 21 l 616 1027 b 617 1028 616 1027 617 1028 b 653 1049 620 1033 630 1048 z m 611 830 l 359 327 l 611 327 l 611 506 z "},"Ç":{"ha":1139,"x_min":0,"x_max":0,"o":"m 656 1048 b 1002 921 778 1048 902 1005 b 1017 889 1011 914 1017 901 b 1005 860 1017 878 1012 868 b 975 847 998 852 987 847 b 948 857 965 847 955 851 b 641 965 859 932 749 968 b 316 818 522 962 404 912 b 289 786 307 808 298 797 b 273 763 283 778 278 771 b 194 500 219 684 193 592 b 281 239 196 408 225 316 b 298 216 286 231 292 223 b 326 185 307 205 316 195 b 406 121 350 161 377 139 b 430 106 414 116 422 111 b 443 99 434 104 439 101 b 469 87 452 95 460 91 b 483 81 473 85 478 83 b 638 49 532 61 584 50 b 692 50 656 48 674 49 b 793 70 727 53 760 60 b 958 165 853 90 910 122 b 986 176 965 172 976 176 b 1028 134 1009 176 1028 157 b 1014 103 1028 122 1022 111 b 818 -9 957 52 890 14 b 804 -13 813 -11 809 -12 b 796 -76 803 -35 801 -57 b 785 -111 794 -89 790 -101 b 754 -155 778 -129 767 -144 b 712 -182 742 -167 728 -176 b 485 -195 652 -205 579 -195 b 444 -153 462 -195 444 -176 b 485 -112 444 -130 462 -112 b 682 -104 585 -112 653 -115 b 698 -94 690 -101 694 -98 b 709 -78 702 -91 705 -86 b 716 -56 711 -72 714 -65 b 720 -31 717 -49 718 -43 b 698 -33 713 -32 705 -32 b 635 -35 678 -35 657 -35 b 451 4 571 -33 509 -19 b 435 11 446 6 440 8 b 419 18 430 13 424 15 b 404 25 414 20 409 23 b 389 33 399 28 394 31 b 374 42 384 36 379 39 b 360 51 369 45 364 48 b 266 127 326 73 295 98 b 233 164 255 139 244 151 b 213 190 226 173 220 181 b 204 204 210 194 207 199 b 111 499 144 293 113 395 b 195 796 110 602 137 706 b 204 810 198 801 201 806 b 223 836 210 819 216 828 b 255 875 233 850 244 862 b 644 1048 360 987 501 1046 b 656 1048 649 1048 652 1048 z "},"È":{"ha":806,"x_min":0,"x_max":0,"o":"m 294 1389 b 327 1372 306 1388 319 1382 l 493 1150 b 501 1125 498 1144 501 1134 b 460 1083 501 1102 483 1083 b 426 1100 447 1083 434 1090 l 260 1322 b 251 1347 255 1329 251 1339 b 294 1389 251 1370 270 1389 z m 153 1049 l 653 1049 b 695 1007 676 1049 695 1030 b 653 965 695 984 676 965 l 194 965 l 194 549 l 597 549 b 639 507 620 549 639 530 b 597 465 639 484 620 465 l 194 465 l 194 49 l 653 49 b 695 7 676 49 695 30 b 653 -35 695 -16 676 -35 l 153 -35 b 122 -22 141 -35 130 -30 b 111 7 115 -14 111 -4 l 111 506 l 111 1007 b 153 1049 111 1030 130 1049 z "},"É":{"ha":806,"x_min":0,"x_max":0,"o":"m 516 1389 b 557 1347 538 1388 557 1370 b 548 1322 557 1339 554 1329 l 382 1100 b 349 1083 375 1090 362 1083 b 307 1125 326 1083 307 1102 b 315 1150 307 1134 310 1144 l 482 1372 b 516 1389 489 1382 502 1389 z m 153 1049 l 653 1049 b 695 1007 676 1049 695 1030 b 653 965 695 984 676 965 l 194 965 l 194 549 l 597 549 b 639 507 620 549 639 530 b 597 465 639 484 620 465 l 194 465 l 194 49 l 653 49 b 695 7 676 49 695 30 b 653 -35 695 -16 676 -35 l 153 -35 b 122 -22 141 -35 130 -30 b 111 7 115 -14 111 -4 l 111 506 l 111 1007 b 153 1049 111 1030 130 1049 z "},"Ê":{"ha":806,"x_min":0,"x_max":0,"o":"m 404 1333 b 434 1321 415 1333 426 1329 l 600 1155 b 613 1125 608 1147 613 1136 b 600 1095 613 1113 608 1102 b 571 1083 592 1088 582 1083 b 541 1096 560 1083 548 1088 l 404 1233 l 267 1096 b 237 1083 260 1088 248 1083 b 207 1096 226 1083 215 1088 b 196 1125 200 1104 196 1114 b 208 1155 196 1136 201 1147 l 375 1321 b 404 1333 382 1328 393 1333 z m 153 1049 l 653 1049 b 695 1007 676 1049 695 1030 b 653 965 695 984 676 965 l 194 965 l 194 549 l 597 549 b 639 507 620 549 639 530 b 597 465 639 484 620 465 l 194 465 l 194 49 l 653 49 b 695 7 676 49 695 30 b 653 -35 695 -16 676 -35 l 153 -35 b 122 -22 141 -35 130 -30 b 111 7 115 -14 111 -4 l 111 506 l 111 1007 b 153 1049 111 1030 130 1049 z "},"Ë":{"ha":806,"x_min":0,"x_max":0,"o":"m 279 1274 b 328 1225 306 1274 328 1252 b 279 1176 328 1198 306 1176 b 231 1225 252 1176 231 1198 b 279 1274 231 1252 252 1274 z m 529 1274 b 578 1225 556 1274 578 1252 b 529 1176 578 1198 556 1176 b 481 1225 502 1176 481 1198 b 529 1274 481 1252 502 1274 z m 153 1049 l 653 1049 b 695 1007 676 1049 695 1030 b 653 965 695 984 676 965 l 194 965 l 194 549 l 597 549 b 639 507 620 549 639 530 b 597 465 639 484 620 465 l 194 465 l 194 49 l 653 49 b 695 7 676 49 695 30 b 653 -35 695 -16 676 -35 l 153 -35 b 122 -22 141 -35 130 -30 b 111 7 115 -14 111 -4 l 111 506 l 111 1007 b 153 1049 111 1030 130 1049 z "},"Ì":{"ha":639,"x_min":0,"x_max":0,"o":"m 210 1331 b 239 1318 221 1331 232 1326 l 406 1152 b 404 1091 426 1133 419 1104 b 347 1093 390 1078 364 1075 l 181 1259 b 180 1319 163 1277 165 1304 b 210 1331 188 1326 198 1331 z m 118 1014 b 153 1049 118 1030 131 1049 l 486 1049 b 528 1007 509 1049 528 1030 b 486 965 528 984 509 965 l 361 965 l 361 49 l 486 49 b 528 7 509 49 528 30 b 486 -35 528 -16 509 -35 b 153 -35 375 -35 264 -35 b 111 9 125 -35 110 -10 b 153 49 112 28 128 49 l 278 49 l 278 965 l 153 965 b 118 1000 137 965 118 978 z "},"Í":{"ha":639,"x_min":0,"x_max":0,"o":"m 429 1389 b 470 1347 451 1388 470 1370 b 461 1322 470 1339 466 1329 l 295 1100 b 261 1083 287 1090 274 1083 b 219 1125 238 1083 219 1102 b 228 1150 219 1134 223 1144 l 394 1372 b 429 1389 402 1382 415 1389 z m 118 1014 b 153 1049 118 1030 131 1049 l 486 1049 b 528 1007 509 1049 528 1030 b 486 965 528 984 509 965 l 361 965 l 361 49 l 486 49 b 528 7 509 49 528 30 b 486 -35 528 -16 509 -35 b 153 -35 375 -35 264 -35 b 111 9 125 -35 110 -10 b 153 49 112 28 128 49 l 278 49 l 278 965 l 153 965 b 118 1000 137 965 118 978 z "},"Î":{"ha":640,"x_min":0,"x_max":0,"o":"m 319 1326 b 349 1314 330 1327 341 1322 l 515 1148 b 514 1087 536 1128 529 1100 b 456 1089 500 1074 474 1071 l 320 1226 l 183 1089 b 122 1090 163 1069 135 1075 b 124 1148 109 1104 105 1130 l 290 1314 b 319 1326 298 1322 308 1326 z m 120 1014 b 154 1049 120 1030 132 1049 l 487 1049 b 529 1007 510 1049 529 1030 b 487 965 529 984 510 965 l 363 965 l 363 49 l 487 49 b 529 7 510 49 529 30 b 487 -35 529 -16 510 -35 l 155 -35 b 113 9 127 -35 111 -10 b 155 49 114 28 129 49 l 279 49 l 279 965 l 154 965 b 120 1000 138 965 120 978 z "},"Ï":{"ha":639,"x_min":0,"x_max":0,"o":"m 192 1264 b 240 1215 219 1264 240 1242 b 192 1167 240 1188 219 1167 b 143 1215 165 1167 143 1188 b 192 1264 143 1242 165 1264 z m 442 1264 b 490 1215 469 1264 490 1242 b 442 1167 490 1188 469 1167 b 393 1215 415 1167 393 1188 b 442 1264 393 1242 415 1264 z m 118 1014 b 153 1049 118 1030 131 1049 l 486 1049 b 528 1007 509 1049 528 1030 b 486 965 528 984 509 965 l 361 965 l 361 49 l 486 49 b 528 7 509 49 528 30 b 486 -35 528 -16 509 -35 l 153 -35 b 111 9 125 -35 110 -10 b 153 49 112 28 128 49 l 278 49 l 278 965 l 153 965 b 118 1000 137 965 118 978 z "},"Ð":{"ha":1229,"x_min":0,"x_max":0,"o":"m 321 1049 l 567 1049 b 980 879 747 1049 887 981 b 1119 507 1073 776 1119 641 b 980 135 1119 373 1073 238 b 567 -35 887 33 747 -35 l 321 -35 b 291 -22 309 -35 298 -30 b 279 7 284 -14 279 -4 l 279 467 l 153 467 b 111 508 130 467 111 485 b 153 550 111 531 130 550 l 279 550 l 279 1007 b 321 1049 279 1030 298 1049 z m 363 965 l 363 550 l 645 550 b 686 508 668 550 686 531 b 645 467 686 485 668 467 l 363 467 l 363 49 l 567 49 b 919 191 726 49 842 106 b 1036 507 996 276 1036 391 b 919 823 1036 623 996 738 b 567 965 842 908 726 965 z "},"Ñ":{"ha":972,"x_min":0,"x_max":0,"o":"m 416 1319 b 518 1273 462 1320 495 1292 b 569 1240 542 1253 562 1241 b 583 1245 573 1240 574 1239 b 619 1282 591 1249 604 1261 b 653 1300 626 1293 639 1300 b 695 1258 676 1300 695 1281 b 687 1234 695 1250 691 1240 b 627 1174 668 1207 648 1187 b 576 1157 611 1164 593 1158 b 559 1157 570 1157 564 1157 b 465 1209 516 1162 486 1191 b 417 1236 442 1228 425 1236 b 386 1218 412 1236 403 1234 b 354 1179 377 1210 366 1197 b 320 1161 346 1168 333 1161 b 278 1203 296 1161 278 1180 b 285 1226 278 1211 281 1220 b 297 1243 289 1232 293 1238 b 329 1279 308 1257 318 1269 b 416 1319 356 1305 385 1319 z m 819 1049 b 861 1007 842 1049 861 1030 l 861 7 b 819 -35 861 -16 842 -35 b 785 -16 806 -35 792 -28 l 194 869 l 194 7 b 153 -35 194 -16 176 -35 b 111 7 130 -35 111 -16 l 111 1007 b 153 1049 111 1030 130 1049 b 187 1030 167 1049 180 1042 l 778 145 l 778 1007 b 819 1049 778 1030 796 1048 z "},"Ò":{"ha":1306,"x_min":0,"x_max":0,"o":"m 542 1326 b 571 1314 553 1326 564 1322 l 738 1148 b 750 1118 745 1140 750 1129 b 708 1076 750 1095 731 1076 b 679 1089 697 1076 686 1081 l 512 1255 b 500 1285 505 1262 500 1274 b 542 1326 500 1308 519 1326 z m 653 1049 b 1194 507 952 1049 1194 806 b 653 -35 1194 208 952 -35 b 111 507 354 -35 111 208 b 653 1049 111 806 354 1049 z m 653 965 b 194 507 400 965 194 760 b 653 49 194 254 400 49 b 1111 507 906 49 1111 254 b 653 965 1111 760 906 965 z "},"Ó":{"ha":1306,"x_min":0,"x_max":0,"o":"m 764 1326 b 734 1314 753 1326 742 1322 l 568 1148 b 555 1118 560 1140 555 1129 b 597 1076 555 1095 574 1076 b 627 1089 608 1076 620 1081 l 793 1255 b 806 1285 801 1262 806 1274 b 764 1326 806 1308 787 1326 z m 653 1049 b 111 507 354 1049 111 806 b 653 -35 111 208 354 -35 b 1194 507 952 -35 1194 208 b 653 1049 1194 806 952 1049 z m 653 965 b 1111 507 906 965 1111 760 b 653 49 1111 254 906 49 b 194 507 400 49 194 254 b 653 965 194 760 400 965 z "},"Ô":{"ha":1306,"x_min":0,"x_max":0,"o":"m 653 1333 b 682 1321 663 1333 675 1329 l 849 1155 b 861 1125 856 1147 861 1136 b 848 1095 861 1113 856 1102 b 820 1083 841 1088 831 1083 b 790 1096 808 1083 797 1088 l 653 1233 l 516 1096 b 486 1083 508 1088 497 1083 b 456 1096 474 1083 463 1088 b 444 1125 449 1104 444 1114 b 457 1155 444 1136 449 1147 l 623 1321 b 653 1333 631 1328 642 1333 z m 653 1049 b 1194 507 952 1049 1194 806 b 653 -35 1194 208 952 -35 b 111 507 354 -35 111 208 b 653 1049 111 806 354 1049 z m 653 965 b 194 507 400 965 194 760 b 653 49 194 254 400 49 b 1111 507 906 49 1111 254 b 653 965 1111 760 906 965 z "},"Õ":{"ha":1306,"x_min":0,"x_max":0,"o":"m 582 1319 b 684 1273 629 1320 662 1292 b 735 1240 709 1253 728 1241 b 749 1245 739 1240 741 1239 b 785 1282 757 1249 770 1261 b 820 1300 793 1293 806 1300 b 861 1258 843 1300 861 1281 b 853 1234 861 1250 858 1240 b 794 1174 834 1207 815 1187 b 742 1157 777 1164 760 1158 b 725 1157 737 1157 731 1157 b 632 1209 682 1163 653 1191 b 584 1236 608 1228 591 1236 b 552 1218 579 1236 569 1234 b 520 1179 543 1210 533 1197 b 486 1161 513 1168 500 1161 b 444 1203 463 1161 444 1180 b 452 1226 444 1211 447 1220 b 495 1279 466 1247 481 1265 b 582 1319 522 1305 552 1319 z m 653 1049 b 1194 507 952 1049 1194 806 b 653 -35 1194 208 952 -35 b 111 507 354 -35 111 208 b 653 1049 111 806 354 1049 z m 653 965 b 194 507 400 965 194 760 b 653 49 194 254 400 49 b 1111 507 906 49 1111 254 b 653 965 1111 760 906 965 z "},"Ö":{"ha":1306,"x_min":0,"x_max":0,"o":"m 525 1271 b 574 1222 552 1271 574 1249 b 525 1174 574 1195 552 1174 b 476 1222 498 1174 476 1195 b 525 1271 476 1249 498 1271 z m 775 1271 b 824 1222 802 1271 824 1249 b 775 1174 824 1195 802 1174 b 726 1222 748 1174 726 1195 b 775 1271 726 1249 748 1271 z m 653 1049 b 1194 507 952 1049 1194 806 b 653 -35 1194 208 952 -35 b 111 507 354 -35 111 208 b 653 1049 111 806 354 1049 z m 653 965 b 194 507 400 965 194 760 b 653 49 194 254 400 49 b 1111 507 906 49 1111 254 b 653 965 1111 760 906 965 z "},"Ø":{"ha":1306,"x_min":0,"x_max":0,"o":"m 1152 1049 b 1195 1007 1175 1049 1195 1030 b 1182 977 1195 996 1190 985 l 1064 859 b 1195 507 1144 766 1195 642 b 653 -35 1195 208 952 -35 b 301 96 518 -35 397 13 l 183 -22 b 153 -35 175 -30 164 -35 b 122 -22 141 -35 130 -30 b 111 7 115 -14 111 -4 b 124 37 111 18 116 29 l 242 155 b 111 507 162 248 111 372 b 653 1049 111 806 354 1049 b 1005 918 787 1049 908 1001 l 1123 1036 b 1152 1049 1130 1043 1141 1048 z m 653 965 b 195 507 400 965 195 760 b 301 214 195 395 232 296 l 946 859 b 653 965 867 925 765 965 z m 1005 800 l 360 155 b 653 49 439 89 541 49 b 1111 507 906 49 1111 254 b 1005 800 1111 619 1073 718 z "},"Ù":{"ha":972,"x_min":0,"x_max":0,"o":"m 375 1326 b 405 1314 386 1326 397 1322 l 571 1148 b 583 1118 578 1140 583 1129 b 542 1076 583 1095 565 1076 b 512 1089 531 1076 519 1081 l 346 1255 b 333 1285 338 1262 333 1274 b 375 1326 333 1308 352 1326 z m 152 1049 b 194 1008 175 1049 194 1031 l 194 338 b 219 210 194 288 204 246 b 285 121 235 174 258 145 b 486 49 338 73 412 49 b 688 121 560 49 634 73 b 753 211 715 145 737 175 b 778 338 769 247 778 289 l 778 1008 b 819 1049 778 1031 796 1049 b 861 1008 842 1049 861 1031 l 861 338 b 827 173 861 276 849 221 b 743 59 807 127 778 89 b 486 -35 672 -4 578 -35 b 229 59 394 -35 300 -4 b 145 173 195 89 166 127 b 111 338 123 221 111 276 l 111 1008 b 152 1049 111 1030 129 1049 z "},"Ú":{"ha":972,"x_min":0,"x_max":0,"o":"m 597 1326 b 568 1314 586 1326 575 1322 l 401 1148 b 389 1118 394 1140 389 1129 b 431 1076 389 1095 408 1076 b 460 1089 442 1076 453 1081 l 627 1255 b 639 1285 634 1262 639 1274 b 597 1326 639 1308 620 1326 z m 820 1049 b 778 1008 797 1049 778 1031 l 778 338 b 753 210 778 288 769 246 b 688 121 737 174 715 145 b 486 49 634 73 560 49 b 285 121 412 49 338 73 b 219 211 257 145 235 175 b 194 338 204 247 194 289 l 194 1008 b 153 1049 194 1031 176 1049 b 111 1008 130 1049 111 1031 l 111 338 b 145 173 111 276 123 221 b 229 59 166 127 195 89 b 486 -35 301 -4 394 -35 b 743 59 578 -35 672 -4 b 827 173 778 89 807 127 b 861 338 849 221 861 276 l 861 1008 b 820 1049 861 1030 843 1049 z "},"Û":{"ha":972,"x_min":0,"x_max":0,"o":"m 486 1326 b 515 1314 497 1326 508 1322 l 682 1148 b 694 1118 690 1141 694 1129 b 681 1088 694 1106 689 1095 b 653 1076 674 1081 664 1076 b 623 1089 642 1076 630 1081 l 486 1226 l 349 1089 b 319 1076 342 1081 330 1076 b 289 1089 307 1076 297 1081 b 278 1118 282 1097 278 1107 b 290 1148 278 1129 283 1141 l 457 1314 b 486 1326 464 1322 475 1326 z m 152 1049 b 194 1008 175 1049 194 1031 l 194 338 b 219 210 194 288 204 246 b 285 121 235 174 258 145 b 486 49 338 73 412 49 b 688 121 560 49 634 73 b 753 211 715 145 737 175 b 778 338 769 247 778 289 l 778 1008 b 819 1049 778 1031 796 1049 b 861 1008 842 1049 861 1031 l 861 338 b 827 173 861 276 849 221 b 743 59 807 127 778 89 b 486 -35 672 -4 578 -35 b 229 59 394 -35 300 -4 b 145 173 195 89 166 127 b 111 338 123 221 111 276 l 111 1008 b 152 1049 111 1030 129 1049 z "},"Ü":{"ha":972,"x_min":0,"x_max":0,"o":"m 359 1264 b 408 1215 386 1264 408 1242 b 359 1167 408 1189 386 1167 b 310 1215 332 1167 310 1189 b 359 1264 310 1242 332 1264 z m 609 1264 b 658 1215 636 1264 658 1242 b 609 1167 658 1189 636 1167 b 560 1215 582 1167 560 1189 b 609 1264 560 1242 582 1264 z m 152 1049 b 194 1008 175 1049 194 1031 l 194 338 b 219 210 194 288 204 246 b 285 121 235 174 258 145 b 486 49 338 73 412 49 b 688 121 560 49 634 73 b 753 211 715 145 737 175 b 778 338 769 247 778 289 l 778 1008 b 819 1049 778 1031 796 1049 b 861 1008 842 1049 861 1031 l 861 338 b 827 173 861 276 849 221 b 743 59 807 127 778 89 b 486 -35 672 -4 578 -35 b 229 59 394 -35 300 -4 b 145 173 195 89 166 127 b 111 338 123 221 111 276 l 111 1008 b 152 1049 111 1030 129 1049 z "},"Ý":{"ha":1083,"x_min":0,"x_max":0,"o":"m 652 1326 b 695 1285 675 1326 695 1308 b 682 1255 695 1274 690 1262 l 516 1089 b 486 1076 509 1081 497 1076 b 444 1118 463 1076 444 1095 b 457 1148 444 1129 449 1140 l 623 1314 b 652 1326 630 1321 641 1326 z m 152 1049 b 189 1028 167 1049 182 1041 l 542 423 l 895 1028 b 931 1049 902 1041 916 1049 b 972 1007 954 1048 972 1030 b 966 986 972 1000 970 991 l 583 329 l 583 7 b 542 -35 583 -16 565 -35 b 500 7 519 -35 500 -16 l 500 329 l 117 986 b 111 1007 114 991 111 1000 b 152 1049 111 1029 128 1048 z "},"à":{"ha":1083,"x_min":0,"x_max":0,"o":"m 431 1327 b 461 1314 442 1327 454 1322 l 627 1148 b 640 1118 635 1141 640 1129 b 598 1076 640 1095 621 1076 b 568 1089 587 1076 576 1081 l 402 1255 b 390 1285 395 1263 390 1274 b 431 1327 390 1308 408 1327 z m 542 1049 b 581 1022 559 1049 574 1038 l 969 22 b 972 7 971 18 972 12 b 931 -35 972 -16 954 -35 b 892 -8 913 -35 898 -24 l 772 299 l 311 299 l 192 -8 b 153 -35 186 -24 170 -35 b 111 7 130 -35 111 -16 b 114 22 111 11 112 18 l 503 1022 b 542 1049 509 1038 525 1049 z m 542 892 l 343 382 l 740 382 z "},"á":{"ha":1083,"x_min":0,"x_max":0,"o":"m 652 1327 b 622 1314 641 1327 630 1322 l 456 1148 b 443 1118 448 1141 443 1129 b 485 1076 443 1095 462 1076 b 515 1089 496 1076 508 1081 l 681 1255 b 694 1285 689 1263 694 1274 b 652 1327 694 1308 675 1327 z m 542 1049 b 503 1022 525 1049 509 1038 l 114 22 b 111 7 112 18 111 12 b 153 -35 111 -16 130 -35 b 192 -8 170 -35 186 -24 l 311 299 l 772 299 l 892 -8 b 931 -35 898 -24 913 -35 b 972 7 954 -35 972 -16 b 969 22 972 11 971 18 l 581 1022 b 542 1049 574 1038 559 1049 z m 542 892 l 740 382 l 343 382 z "},"â":{"ha":1083,"x_min":0,"x_max":0,"o":"m 541 1327 b 571 1315 552 1327 563 1322 l 738 1148 b 750 1118 745 1141 750 1129 b 737 1088 750 1106 745 1096 b 708 1077 730 1081 719 1077 b 679 1089 697 1077 686 1082 l 542 1226 l 405 1089 b 375 1077 397 1082 386 1077 b 345 1090 363 1077 352 1082 b 333 1118 338 1097 333 1107 b 346 1148 333 1129 338 1141 l 512 1315 b 541 1327 520 1322 531 1327 z m 542 1049 b 581 1022 559 1049 574 1038 l 969 22 b 972 7 971 18 972 11 b 931 -35 972 -16 954 -35 b 892 -8 913 -35 898 -24 l 772 299 l 311 299 l 192 -8 b 153 -35 186 -24 170 -35 b 111 7 130 -35 111 -16 b 114 22 111 11 112 18 l 503 1022 b 542 1049 509 1038 525 1049 z m 542 892 l 343 382 l 740 382 z "},"ã":{"ha":1083,"x_min":0,"x_max":0,"o":"m 471 1303 b 573 1257 518 1304 551 1275 b 624 1224 598 1237 617 1224 b 638 1228 628 1223 630 1223 b 674 1266 646 1233 659 1245 b 708 1283 682 1277 695 1283 b 750 1242 731 1283 750 1265 b 742 1217 750 1233 747 1224 b 682 1157 723 1191 704 1170 b 631 1140 666 1147 649 1141 b 614 1141 626 1140 620 1140 b 521 1192 571 1146 542 1175 b 473 1220 497 1211 480 1220 b 441 1202 468 1219 458 1218 b 409 1163 432 1193 422 1180 b 375 1144 402 1151 389 1144 b 333 1186 352 1144 333 1163 b 341 1210 333 1194 336 1204 b 384 1262 355 1231 370 1248 b 471 1303 411 1288 440 1302 z m 542 1049 b 581 1022 559 1049 574 1038 l 969 22 b 972 7 971 18 972 12 b 931 -35 972 -16 954 -35 b 892 -8 913 -35 898 -24 l 772 299 l 311 299 l 281 223 l 192 -8 b 153 -35 186 -24 170 -35 b 111 7 130 -35 111 -16 b 114 22 111 11 112 18 l 204 254 l 503 1022 b 542 1049 509 1038 525 1049 z m 542 892 l 343 382 l 740 382 z "},"ä":{"ha":1083,"x_min":0,"x_max":0,"o":"m 417 1222 b 465 1174 444 1222 465 1200 b 417 1125 465 1147 444 1125 b 368 1174 390 1125 368 1147 b 417 1222 368 1200 390 1222 z m 667 1222 b 715 1174 694 1222 715 1200 b 667 1125 715 1147 694 1125 b 618 1174 640 1125 618 1147 b 667 1222 618 1200 640 1222 z m 542 1049 b 581 1022 559 1049 574 1038 l 969 22 b 972 7 971 18 972 11 b 931 -35 972 -16 954 -35 b 892 -8 913 -35 898 -24 l 772 299 l 311 299 l 192 -8 b 153 -35 186 -24 170 -35 b 111 7 130 -35 111 -16 b 114 22 111 11 112 18 l 503 1022 b 542 1049 509 1038 525 1049 z m 542 892 l 343 382 l 740 382 z "},"å":{"ha":1083,"x_min":0,"x_max":0,"o":"m 542 1326 b 667 1201 611 1326 667 1270 b 542 1076 667 1132 611 1076 b 417 1201 473 1076 417 1132 b 542 1326 417 1270 473 1326 z m 542 1243 b 500 1201 519 1243 500 1225 b 542 1160 500 1178 519 1160 b 583 1201 565 1160 583 1178 b 542 1243 583 1225 565 1243 z m 542 1049 b 581 1022 559 1049 574 1038 l 969 22 b 972 7 971 18 972 12 b 931 -35 972 -16 954 -35 b 892 -8 913 -35 898 -24 l 772 299 l 311 299 l 192 -8 b 153 -35 186 -24 170 -35 b 111 7 130 -35 111 -16 b 114 22 111 11 112 18 l 503 1022 b 542 1049 509 1038 525 1049 z m 542 892 l 343 382 l 740 382 z "},"æ":{"ha":1250,"x_min":0,"x_max":0,"o":"m 653 1049 l 1097 1049 b 1139 1007 1120 1049 1139 1030 b 1097 965 1139 984 1120 965 l 694 965 l 694 549 l 1042 549 b 1083 507 1065 549 1083 530 b 1042 465 1083 484 1065 465 l 694 465 b 695 285 694 406 695 355 b 694 279 695 283 695 281 l 694 49 l 1097 49 b 1139 7 1120 49 1139 30 b 1097 -35 1139 -16 1120 -35 l 653 -35 b 622 -22 641 -35 630 -30 b 611 7 615 -14 611 -4 l 611 243 l 317 243 l 190 -12 b 153 -35 183 -26 169 -35 b 111 7 130 -35 111 -16 b 116 26 111 13 113 21 l 616 1027 b 617 1028 616 1027 617 1028 b 653 1049 620 1033 630 1048 z m 611 830 l 359 327 l 611 327 l 611 506 z "},"ç":{"ha":1139,"x_min":0,"x_max":0,"o":"m 656 1048 b 1002 921 778 1048 902 1005 b 1017 889 1011 914 1017 901 b 1005 860 1017 878 1012 868 b 975 847 998 852 987 847 b 948 857 965 847 955 851 b 641 965 859 932 749 968 b 316 818 522 962 404 912 b 289 786 307 808 298 797 b 273 763 283 778 278 771 b 194 500 219 684 193 592 b 281 239 196 408 225 316 b 298 216 286 231 292 223 b 326 185 307 205 316 195 b 406 121 350 161 377 139 b 430 106 414 116 422 111 b 443 99 434 104 439 101 b 469 87 452 95 460 91 b 483 81 473 85 478 83 b 638 49 532 61 584 50 b 692 50 656 48 674 49 b 793 70 727 53 760 60 b 958 165 853 90 910 122 b 986 176 965 172 976 176 b 1028 134 1009 176 1028 157 b 1014 103 1028 122 1022 111 b 818 -9 957 52 890 14 b 804 -13 813 -11 809 -12 b 796 -76 803 -35 801 -57 b 785 -111 794 -89 790 -101 b 754 -155 778 -129 767 -144 b 712 -182 742 -167 728 -176 b 485 -195 652 -205 579 -195 b 444 -153 462 -195 444 -176 b 485 -112 444 -130 462 -112 b 682 -104 585 -112 653 -115 b 698 -94 690 -101 694 -98 b 709 -78 702 -91 705 -86 b 716 -56 711 -72 714 -65 b 720 -31 717 -49 718 -43 b 698 -33 713 -32 705 -32 b 635 -35 678 -35 657 -35 b 451 4 571 -33 509 -19 b 435 11 446 6 440 8 b 419 18 430 13 424 15 b 404 25 414 20 409 23 b 389 33 399 28 394 31 b 374 42 384 36 379 39 b 360 51 369 45 364 48 b 266 127 326 73 295 98 b 233 164 255 139 244 151 b 213 190 226 173 220 181 b 204 204 210 194 207 199 b 111 499 144 293 113 395 b 195 796 110 602 137 706 b 204 810 198 801 201 806 b 223 836 210 819 216 828 b 255 875 233 850 244 862 b 644 1048 360 987 501 1046 b 656 1048 649 1048 652 1048 z "},"è":{"ha":806,"x_min":0,"x_max":0,"o":"m 294 1389 b 327 1372 306 1388 319 1382 l 493 1150 b 501 1125 498 1144 501 1134 b 460 1083 501 1102 483 1083 b 426 1100 447 1083 434 1090 l 260 1322 b 251 1347 255 1329 251 1339 b 294 1389 251 1370 270 1389 z m 153 1049 l 653 1049 b 695 1007 676 1049 695 1030 b 653 965 695 984 676 965 l 194 965 l 194 549 l 597 549 b 639 507 620 549 639 530 b 597 465 639 484 620 465 l 194 465 l 194 49 l 653 49 b 695 7 676 49 695 30 b 653 -35 695 -16 676 -35 l 153 -35 b 122 -22 141 -35 130 -30 b 111 7 115 -14 111 -4 l 111 506 l 111 1007 b 153 1049 111 1030 130 1049 z "},"é":{"ha":806,"x_min":0,"x_max":0,"o":"m 516 1389 b 557 1347 538 1388 557 1370 b 548 1322 557 1339 554 1329 l 382 1100 b 349 1083 375 1090 362 1083 b 307 1125 326 1083 307 1102 b 315 1150 307 1134 310 1144 l 482 1372 b 516 1389 489 1382 502 1389 z m 153 1049 l 653 1049 b 695 1007 676 1049 695 1030 b 653 965 695 984 676 965 l 194 965 l 194 549 l 597 549 b 639 507 620 549 639 530 b 597 465 639 484 620 465 l 194 465 l 194 49 l 653 49 b 695 7 676 49 695 30 b 653 -35 695 -16 676 -35 l 153 -35 b 122 -22 141 -35 130 -30 b 111 7 115 -14 111 -4 l 111 506 l 111 1007 b 153 1049 111 1030 130 1049 z "},"ê":{"ha":806,"x_min":0,"x_max":0,"o":"m 404 1333 b 434 1321 415 1333 426 1329 l 600 1155 b 613 1125 608 1147 613 1136 b 600 1095 613 1113 608 1102 b 571 1083 592 1088 582 1083 b 541 1096 560 1083 548 1088 l 404 1233 l 267 1096 b 237 1083 260 1088 248 1083 b 207 1096 226 1083 215 1088 b 196 1125 200 1104 196 1114 b 208 1155 196 1136 201 1147 l 375 1321 b 404 1333 382 1328 393 1333 z m 153 1049 l 653 1049 b 695 1007 676 1049 695 1030 b 653 965 695 984 676 965 l 194 965 l 194 549 l 597 549 b 639 507 620 549 639 530 b 597 465 639 484 620 465 l 194 465 l 194 49 l 653 49 b 695 7 676 49 695 30 b 653 -35 695 -16 676 -35 l 153 -35 b 122 -22 141 -35 130 -30 b 111 7 115 -14 111 -4 l 111 506 l 111 1007 b 153 1049 111 1030 130 1049 z "},"ë":{"ha":806,"x_min":0,"x_max":0,"o":"m 279 1274 b 328 1225 306 1274 328 1252 b 279 1176 328 1198 306 1176 b 231 1225 252 1176 231 1198 b 279 1274 231 1252 252 1274 z m 529 1274 b 578 1225 556 1274 578 1252 b 529 1176 578 1198 556 1176 b 481 1225 502 1176 481 1198 b 529 1274 481 1252 502 1274 z m 153 1049 l 653 1049 b 695 1007 676 1049 695 1030 b 653 965 695 984 676 965 l 194 965 l 194 549 l 597 549 b 639 507 620 549 639 530 b 597 465 639 484 620 465 l 194 465 l 194 49 l 653 49 b 695 7 676 49 695 30 b 653 -35 695 -16 676 -35 l 153 -35 b 122 -22 141 -35 130 -30 b 111 7 115 -14 111 -4 l 111 506 l 111 1007 b 153 1049 111 1030 130 1049 z "},"ì":{"ha":639,"x_min":0,"x_max":0,"o":"m 210 1331 b 239 1318 221 1331 232 1326 l 406 1152 b 404 1091 426 1133 419 1104 b 347 1093 390 1078 364 1075 l 181 1259 b 180 1319 163 1277 165 1304 b 210 1331 188 1326 198 1331 z m 118 1014 b 153 1049 118 1030 131 1049 l 486 1049 b 528 1007 509 1049 528 1030 b 486 965 528 984 509 965 l 361 965 l 361 49 l 486 49 b 528 7 509 49 528 30 b 486 -35 528 -16 509 -35 b 153 -35 375 -35 264 -35 b 111 9 125 -35 110 -10 b 153 49 112 28 128 49 l 278 49 l 278 965 l 153 965 b 118 1000 137 965 118 978 z "},"í":{"ha":639,"x_min":0,"x_max":0,"o":"m 429 1389 b 470 1347 451 1388 470 1370 b 461 1322 470 1339 466 1329 l 295 1100 b 261 1083 287 1090 274 1083 b 219 1125 238 1083 219 1102 b 228 1150 219 1134 223 1144 l 394 1372 b 429 1389 402 1382 415 1389 z m 118 1014 b 153 1049 118 1030 131 1049 l 486 1049 b 528 1007 509 1049 528 1030 b 486 965 528 984 509 965 l 361 965 l 361 49 l 486 49 b 528 7 509 49 528 30 b 486 -35 528 -16 509 -35 b 153 -35 375 -35 264 -35 b 111 9 125 -35 110 -10 b 153 49 112 28 128 49 l 278 49 l 278 965 l 153 965 b 118 1000 137 965 118 978 z "},"î":{"ha":640,"x_min":0,"x_max":0,"o":"m 319 1326 b 349 1314 330 1327 341 1322 l 515 1148 b 514 1087 536 1128 529 1100 b 456 1089 500 1074 474 1071 l 320 1226 l 183 1089 b 122 1090 163 1069 135 1075 b 124 1148 109 1104 105 1130 l 290 1314 b 319 1326 298 1322 308 1326 z m 120 1014 b 154 1049 120 1030 132 1049 l 487 1049 b 529 1007 510 1049 529 1030 b 487 965 529 984 510 965 l 363 965 l 363 49 l 487 49 b 529 7 510 49 529 30 b 487 -35 529 -16 510 -35 l 155 -35 b 113 9 127 -35 111 -10 b 155 49 114 28 129 49 l 279 49 l 279 965 l 154 965 b 120 1000 138 965 120 978 z "},"ï":{"ha":639,"x_min":0,"x_max":0,"o":"m 192 1264 b 240 1215 219 1264 240 1242 b 192 1167 240 1188 219 1167 b 143 1215 165 1167 143 1188 b 192 1264 143 1242 165 1264 z m 442 1264 b 490 1215 469 1264 490 1242 b 442 1167 490 1188 469 1167 b 393 1215 415 1167 393 1188 b 442 1264 393 1242 415 1264 z m 118 1014 b 153 1049 118 1030 131 1049 l 486 1049 b 528 1007 509 1049 528 1030 b 486 965 528 984 509 965 l 361 965 l 361 49 l 486 49 b 528 7 509 49 528 30 b 486 -35 528 -16 509 -35 l 153 -35 b 111 9 125 -35 110 -10 b 153 49 112 28 128 49 l 278 49 l 278 965 l 153 965 b 118 1000 137 965 118 978 z "},"ð":{"ha":1229,"x_min":0,"x_max":0,"o":"m 321 1049 l 567 1049 b 980 879 747 1049 887 981 b 1119 507 1073 776 1119 641 b 980 135 1119 373 1073 238 b 567 -35 887 33 747 -35 l 321 -35 b 291 -22 309 -35 298 -30 b 279 7 284 -14 279 -4 l 279 467 l 153 467 b 111 508 130 467 111 485 b 153 550 111 531 130 550 l 279 550 l 279 1007 b 321 1049 279 1030 298 1049 z m 363 965 l 363 550 l 645 550 b 686 508 668 550 686 531 b 645 467 686 485 668 467 l 363 467 l 363 49 l 567 49 b 919 191 726 49 842 106 b 1036 507 996 276 1036 391 b 919 823 1036 623 996 738 b 567 965 842 908 726 965 z "},"ñ":{"ha":972,"x_min":0,"x_max":0,"o":"m 416 1319 b 518 1273 462 1320 495 1292 b 569 1240 542 1253 562 1241 b 583 1245 573 1240 574 1239 b 619 1282 591 1249 604 1261 b 653 1300 626 1293 639 1300 b 695 1258 676 1300 695 1281 b 687 1234 695 1250 691 1240 b 627 1174 668 1207 648 1187 b 576 1157 611 1164 593 1158 b 559 1157 570 1157 564 1157 b 465 1209 516 1162 486 1191 b 417 1236 442 1228 425 1236 b 386 1218 412 1236 403 1234 b 354 1179 377 1210 366 1197 b 320 1161 346 1168 333 1161 b 278 1203 296 1161 278 1180 b 285 1226 278 1211 281 1220 b 297 1243 289 1232 293 1238 b 329 1279 308 1257 318 1269 b 416 1319 356 1305 385 1319 z m 819 1049 b 861 1007 842 1049 861 1030 l 861 7 b 819 -35 861 -16 842 -35 b 785 -16 806 -35 792 -28 l 194 869 l 194 7 b 153 -35 194 -16 176 -35 b 111 7 130 -35 111 -16 l 111 1007 b 153 1049 111 1030 130 1049 b 187 1030 167 1049 180 1042 l 778 145 l 778 1007 b 819 1049 778 1030 796 1048 z "},"ò":{"ha":1306,"x_min":0,"x_max":0,"o":"m 542 1326 b 571 1314 553 1326 564 1322 l 738 1148 b 750 1118 745 1140 750 1129 b 708 1076 750 1095 731 1076 b 679 1089 697 1076 686 1081 l 512 1255 b 500 1285 505 1262 500 1274 b 542 1326 500 1308 519 1326 z m 653 1049 b 1194 507 952 1049 1194 806 b 653 -35 1194 208 952 -35 b 111 507 354 -35 111 208 b 653 1049 111 806 354 1049 z m 653 965 b 194 507 400 965 194 760 b 653 49 194 254 400 49 b 1111 507 906 49 1111 254 b 653 965 1111 760 906 965 z "},"ó":{"ha":1306,"x_min":0,"x_max":0,"o":"m 764 1326 b 734 1314 753 1326 742 1322 l 568 1148 b 555 1118 560 1140 555 1129 b 597 1076 555 1095 574 1076 b 627 1089 608 1076 620 1081 l 793 1255 b 806 1285 801 1262 806 1274 b 764 1326 806 1308 787 1326 z m 653 1049 b 111 507 354 1049 111 806 b 653 -35 111 208 354 -35 b 1194 507 952 -35 1194 208 b 653 1049 1194 806 952 1049 z m 653 965 b 1111 507 906 965 1111 760 b 653 49 1111 254 906 49 b 194 507 400 49 194 254 b 653 965 194 760 400 965 z "},"ô":{"ha":1306,"x_min":0,"x_max":0,"o":"m 653 1333 b 682 1321 663 1333 675 1329 l 849 1155 b 861 1125 856 1147 861 1136 b 848 1095 861 1113 856 1102 b 820 1083 841 1088 831 1083 b 790 1096 808 1083 797 1088 l 653 1233 l 516 1096 b 486 1083 508 1088 497 1083 b 456 1096 474 1083 463 1088 b 444 1125 449 1104 444 1114 b 457 1155 444 1136 449 1147 l 623 1321 b 653 1333 631 1328 642 1333 z m 653 1049 b 1194 507 952 1049 1194 806 b 653 -35 1194 208 952 -35 b 111 507 354 -35 111 208 b 653 1049 111 806 354 1049 z m 653 965 b 194 507 400 965 194 760 b 653 49 194 254 400 49 b 1111 507 906 49 1111 254 b 653 965 1111 760 906 965 z "},"õ":{"ha":1306,"x_min":0,"x_max":0,"o":"m 582 1319 b 684 1273 629 1320 662 1292 b 735 1240 709 1253 728 1241 b 749 1245 739 1240 741 1239 b 785 1282 757 1249 770 1261 b 820 1300 793 1293 806 1300 b 861 1258 843 1300 861 1281 b 853 1234 861 1250 858 1240 b 794 1174 834 1207 815 1187 b 742 1157 777 1164 760 1158 b 725 1157 737 1157 731 1157 b 632 1209 682 1163 653 1191 b 584 1236 608 1228 591 1236 b 552 1218 579 1236 569 1234 b 520 1179 543 1210 533 1197 b 486 1161 513 1168 500 1161 b 444 1203 463 1161 444 1180 b 452 1226 444 1211 447 1220 b 495 1279 466 1247 481 1265 b 582 1319 522 1305 552 1319 z m 653 1049 b 1194 507 952 1049 1194 806 b 653 -35 1194 208 952 -35 b 111 507 354 -35 111 208 b 653 1049 111 806 354 1049 z m 653 965 b 194 507 400 965 194 760 b 653 49 194 254 400 49 b 1111 507 906 49 1111 254 b 653 965 1111 760 906 965 z "},"ö":{"ha":1306,"x_min":0,"x_max":0,"o":"m 525 1271 b 574 1222 552 1271 574 1249 b 525 1174 574 1195 552 1174 b 476 1222 498 1174 476 1195 b 525 1271 476 1249 498 1271 z m 775 1271 b 824 1222 802 1271 824 1249 b 775 1174 824 1195 802 1174 b 726 1222 748 1174 726 1195 b 775 1271 726 1249 748 1271 z m 653 1049 b 1194 507 952 1049 1194 806 b 653 -35 1194 208 952 -35 b 111 507 354 -35 111 208 b 653 1049 111 806 354 1049 z m 653 965 b 194 507 400 965 194 760 b 653 49 194 254 400 49 b 1111 507 906 49 1111 254 b 653 965 1111 760 906 965 z "},"ø":{"ha":1306,"x_min":0,"x_max":0,"o":"m 1152 1049 b 1195 1007 1175 1049 1195 1030 b 1182 977 1195 996 1190 985 l 1064 859 b 1195 507 1144 766 1195 642 b 653 -35 1195 208 952 -35 b 301 96 518 -35 397 13 l 183 -22 b 153 -35 175 -30 164 -35 b 122 -22 141 -35 130 -30 b 111 7 115 -14 111 -4 b 124 37 111 18 116 29 l 242 155 b 111 507 162 248 111 372 b 653 1049 111 806 354 1049 b 1005 918 787 1049 908 1001 l 1123 1036 b 1152 1049 1130 1043 1141 1048 z m 653 965 b 195 507 400 965 195 760 b 301 214 195 395 232 296 l 946 859 b 653 965 867 925 765 965 z m 1005 800 l 360 155 b 653 49 439 89 541 49 b 1111 507 906 49 1111 254 b 1005 800 1111 619 1073 718 z "},"ù":{"ha":972,"x_min":0,"x_max":0,"o":"m 375 1326 b 405 1314 386 1326 397 1322 l 571 1148 b 583 1118 578 1140 583 1129 b 542 1076 583 1095 565 1076 b 512 1089 531 1076 519 1081 l 346 1255 b 333 1285 338 1262 333 1274 b 375 1326 333 1308 352 1326 z m 152 1049 b 194 1008 175 1049 194 1031 l 194 338 b 219 210 194 288 204 246 b 285 121 235 174 258 145 b 486 49 338 73 412 49 b 688 121 560 49 634 73 b 753 211 715 145 737 175 b 778 338 769 247 778 289 l 778 1008 b 819 1049 778 1031 796 1049 b 861 1008 842 1049 861 1031 l 861 338 b 827 173 861 276 849 221 b 743 59 807 127 778 89 b 486 -35 672 -4 578 -35 b 229 59 394 -35 300 -4 b 145 173 195 89 166 127 b 111 338 123 221 111 276 l 111 1008 b 152 1049 111 1030 129 1049 z "},"ú":{"ha":972,"x_min":0,"x_max":0,"o":"m 597 1326 b 568 1314 586 1326 575 1322 l 401 1148 b 389 1118 394 1140 389 1129 b 431 1076 389 1095 408 1076 b 460 1089 442 1076 453 1081 l 627 1255 b 639 1285 634 1262 639 1274 b 597 1326 639 1308 620 1326 z m 820 1049 b 778 1008 797 1049 778 1031 l 778 338 b 753 210 778 288 769 246 b 688 121 737 174 715 145 b 486 49 634 73 560 49 b 285 121 412 49 338 73 b 219 211 257 145 235 175 b 194 338 204 247 194 289 l 194 1008 b 153 1049 194 1031 176 1049 b 111 1008 130 1049 111 1031 l 111 338 b 145 173 111 276 123 221 b 229 59 166 127 195 89 b 486 -35 301 -4 394 -35 b 743 59 578 -35 672 -4 b 827 173 778 89 807 127 b 861 338 849 221 861 276 l 861 1008 b 820 1049 861 1030 843 1049 z "},"û":{"ha":972,"x_min":0,"x_max":0,"o":"m 486 1326 b 515 1314 497 1326 508 1322 l 682 1148 b 694 1118 690 1141 694 1129 b 681 1088 694 1106 689 1095 b 653 1076 674 1081 664 1076 b 623 1089 642 1076 630 1081 l 486 1226 l 349 1089 b 319 1076 342 1081 330 1076 b 289 1089 307 1076 297 1081 b 278 1118 282 1097 278 1107 b 290 1148 278 1129 283 1141 l 457 1314 b 486 1326 464 1322 475 1326 z m 152 1049 b 194 1008 175 1049 194 1031 l 194 338 b 219 210 194 288 204 246 b 285 121 235 174 258 145 b 486 49 338 73 412 49 b 688 121 560 49 634 73 b 753 211 715 145 737 175 b 778 338 769 247 778 289 l 778 1008 b 819 1049 778 1031 796 1049 b 861 1008 842 1049 861 1031 l 861 338 b 827 173 861 276 849 221 b 743 59 807 127 778 89 b 486 -35 672 -4 578 -35 b 229 59 394 -35 300 -4 b 145 173 195 89 166 127 b 111 338 123 221 111 276 l 111 1008 b 152 1049 111 1030 129 1049 z "},"ü":{"ha":972,"x_min":0,"x_max":0,"o":"m 359 1264 b 408 1215 386 1264 408 1242 b 359 1167 408 1189 386 1167 b 310 1215 332 1167 310 1189 b 359 1264 310 1242 332 1264 z m 609 1264 b 658 1215 636 1264 658 1242 b 609 1167 658 1189 636 1167 b 560 1215 582 1167 560 1189 b 609 1264 560 1242 582 1264 z m 152 1049 b 194 1008 175 1049 194 1031 l 194 338 b 219 210 194 288 204 246 b 285 121 235 174 258 145 b 486 49 338 73 412 49 b 688 121 560 49 634 73 b 753 211 715 145 737 175 b 778 338 769 247 778 289 l 778 1008 b 819 1049 778 1031 796 1049 b 861 1008 842 1049 861 1031 l 861 338 b 827 173 861 276 849 221 b 743 59 807 127 778 89 b 486 -35 672 -4 578 -35 b 229 59 394 -35 300 -4 b 145 173 195 89 166 127 b 111 338 123 221 111 276 l 111 1008 b 152 1049 111 1030 129 1049 z "},"ý":{"ha":1083,"x_min":0,"x_max":0,"o":"m 652 1326 b 695 1285 675 1326 695 1308 b 682 1255 695 1274 690 1262 l 516 1089 b 486 1076 509 1081 497 1076 b 444 1118 463 1076 444 1095 b 457 1148 444 1129 449 1140 l 623 1314 b 652 1326 630 1321 641 1326 z m 152 1049 b 189 1028 167 1049 182 1041 l 542 423 l 895 1028 b 931 1049 902 1041 916 1049 b 972 1007 954 1048 972 1030 b 966 986 972 1000 970 991 l 583 329 l 583 7 b 542 -35 583 -16 565 -35 b 500 7 519 -35 500 -16 l 500 329 l 117 986 b 111 1007 114 991 111 1000 b 152 1049 111 1029 128 1048 z "},"ÿ":{"ha":1083,"x_min":0,"x_max":0,"o":"m 414 1264 b 463 1215 441 1264 463 1242 b 414 1167 463 1188 441 1167 b 365 1215 387 1167 365 1188 b 414 1264 365 1242 387 1264 z m 664 1264 b 713 1215 691 1264 713 1242 b 664 1167 713 1188 691 1167 b 615 1215 637 1167 615 1188 b 664 1264 615 1242 637 1264 z m 932 1049 b 967 986 964 1048 983 1012 l 583 329 l 583 7 b 542 -35 584 -16 565 -35 b 500 7 519 -35 500 -16 l 500 329 l 117 986 b 152 1049 101 1013 120 1048 b 189 1028 168 1049 182 1041 l 542 423 l 895 1028 b 932 1049 902 1041 917 1049 z "},"…":{"ha":682,"x_min":0,"x_max":0,"o":"m 160 63 b 208 14 187 63 208 41 b 160 -35 208 -13 187 -35 b 111 14 133 -35 111 -13 b 160 63 111 41 133 63 z m 342 63 b 390 14 369 63 390 41 b 342 -35 390 -13 369 -35 b 293 14 315 -35 293 -13 b 342 63 293 41 315 63 z m 522 63 b 571 14 549 63 571 41 b 522 -35 571 -13 549 -35 b 474 14 495 -35 474 -13 b 522 63 474 41 495 63 z "},"”":{"ha":461,"x_min":0,"x_max":0,"o":"m 153 1049 b 194 1007 175 1049 194 1030 l 194 840 b 153 798 194 817 176 798 b 111 840 130 798 111 817 l 111 1007 b 153 1049 111 1030 129 1048 z m 308 1049 b 350 1007 331 1049 350 1030 l 350 840 b 308 798 350 817 331 798 b 267 840 285 798 267 817 l 267 1007 b 308 1049 267 1030 285 1048 z "},"’":{"ha":306,"x_min":0,"x_max":0,"o":"m 152 1049 b 194 1007 175 1049 194 1030 l 194 840 b 153 798 194 817 176 798 b 111 840 130 798 111 817 l 111 1007 b 152 1049 111 1030 129 1048 z "},"“":{"ha":461,"x_min":0,"x_max":0,"o":"m 153 1049 b 194 1007 175 1049 194 1030 l 194 840 b 153 798 194 817 176 798 b 111 840 130 798 111 817 l 111 1007 b 153 1049 111 1030 129 1048 z m 308 1049 b 350 1007 331 1049 350 1030 l 350 840 b 308 798 350 817 331 798 b 267 840 285 798 267 817 l 267 1007 b 308 1049 267 1030 285 1048 z "},"‘":{"ha":306,"x_min":0,"x_max":0,"o":"m 152 1049 b 194 1007 175 1049 194 1030 l 194 840 b 153 798 194 817 176 798 b 111 840 130 798 111 817 l 111 1007 b 152 1049 111 1030 129 1048 z "}}}
